<mxfile host="app.diagrams.net" modified="2023-01-09T20:11:13.257Z" agent="5.0 (X11)" version="20.7.3" etag="4YPVUCg-hTCGZ__KMNgl" type="github">
  <diagram id="UsZmaUmZay8UQ5crj3jJ" name="Page-1">
    <mxGraphModel dx="2840" dy="905" grid="1" gridSize="10" guides="1" tooltips="1" connect="1" arrows="1" fold="1" page="1" pageScale="1" pageWidth="850" pageHeight="1100" math="0" shadow="0">
      <root>
        <mxCell id="0" />
        <mxCell id="1" parent="0" />
        <mxCell id="ccXvsCosrCvfX4L5Q6JC-1" value="" style="shape=image;verticalLabelPosition=bottom;labelBackgroundColor=default;verticalAlign=top;aspect=fixed;imageAspect=0;image=data:image/png,iVBORw0KGgoAAAANSUhEUgAAAlgAAAIJCAYAAAB5tEOOAAAKMGlDQ1BpY2MAAHictZZnUJPpGoaf7/vSCy0h0vnozdBLAJESWkBFkW4jJAECIWBIABU7ooIriIgINpBVERdcCyCLiliwLYqKXTfIoqAeFws2VM4Pf+jOOTNn5sw595/3ee9575nnvX9dAPRhAAAUALLkSkV0WBCekJiEk+8CBoagC5ZgKhTl5sC/Cvk+vrv17XaDCwBg98HvUcvr2OaCoE9/Xlrtzfw32R+lJZbkigCQYABYlJKQmASAdAEAOyUmmg+A3ASgMMRZYjEAVQ0A69ISEpMAaOkAwE774Y1MlSUFoBUCADtLIswFoJUDgGVKZo4SgHYUANiKb9kLAMBW/JBVSkTpALQHAMDIU0nEALRhAFibr8xRAtBzAIAtylEoAehFAOAlSheKAeidADD52/4AAGCaGx0WhAtC+J4u3p6eXFeuC54iE4oy8VyRUCYR/4cm/gslJCbh3ybL3QCaRQCtV0UqRd43jwAAQAQaaAIb9MEELMAWuOAKXuALARACERAFMZAI80EE6ZAFCsiHQlgJxVAK5bAFamAXNEAjNMNhaINOOA3n4TJcg364D2oYgucwCu9gHEEQMsJEWIg+YopYIQ6IK8JDpiIhyDQkGklEkpE0RI6okEJkNVKKVCA1SB3SiPyKHEdOIxeRPuQuMoCMIK+RTyiGMlA2aoxao04oDw1EI9EYdB6ahi5EF6NF6Ea0Gq1HD6Kt6Gn0MtqPqtHn6BgGGB3jYGYYF+NhfCwKS8JSMQW2DCvBqrB6rBnrwHqwG5gae4F9JJAILAJO4BJ8CeGEWIKIsJCwjLCBUEPYT2glnCXcIAwQRglfiUyiEdGB6EMUEBOIacR8YjGxiriXeIx4jthPHCK+I5FIHJINyYsUTkokZZCWkDaQdpBaSF2kPtIgaYxMJuuTHch+5CiykKwkF5O3kQ+ST5Gvk4fIHyh0iinFlRJKSaLIKasoVZQDlJOU65SnlHGqFtWK6kONooqpi6hl1AZqB/UqdYg6TtOm2dD8aDG0DNpKWjWtmXaO9oD2hk6nm9O96bPoUvoKejX9EP0CfYD+kaHDsGfwGXMZKsZGxj5GF+Mu4w2TybRmBjCTmErmRmYj8wzzEfODBkvDUUOgIdZYrlGr0apxXeOlJlXTSjNQc77mYs0qzSOaVzVfaFG1rLX4WkKtZVq1Wse1bmuNabO0XbSjtLO0N2gf0L6oPaxD1rHWCdER6xTp7NE5ozPIwlgWLD5LxFrNamCdYw2xSWwbtoCdwS5l/8LuZY/q6ui668bpFujW6p7QVXMwjjVHwJFxyjiHObc4nyYZTwqcJJm0flLzpOuT3usZ6gXoSfRK9Fr0+vU+6eP6IfqZ+pv02/QfGhAM7A1mGeQb7DQ4Z/DCkG3oaygyLDE8bHjPCDWyN4o2WmK0x+iK0ZixiXGYcY7xNuMzxi9MOCYBJhkmlSYnTUZMWaZTTaWmlaanTJ/hunggLsOr8bP4qJmRWbiZyqzOrNds3NzGPNZ8lXmL+UMLmgXPItWi0qLbYtTS1HK6ZaFlk+U9K6oVzyrdaqtVj9V7axvreOu11m3WwzZ6NgKbxTZNNg9smbb+tgtt621v2pHseHaZdjvsrtmj9h726fa19lcdUAdPB6nDDoe+ycTJ3pPlk+sn3+YyuIHcPG4Td8CR4zjNcZVjm+NLJ0unJKdNTj1OX509nGXODc73XXRcIlxWuXS4vHa1dxW51rredGO6hbotd2t3e+Xu4C5x3+l+x4PlMd1jrUe3xxdPL0+FZ7PniJelV7LXdq/bPDZvJm8D74I30TvIe7l3p/dHH08fpc9hn798ub6Zvgd8h6fYTJFMaZgy6GfuJ/Sr81NPxacmT909Ve1v5i/0r/d/HGARIA7YG/A00C4wI/Bg4Msg5yBF0LGg93wf/lJ+VzAWHBZcEtwbohMSG1IT8ijUPDQttCl0NMwjbElYVzgxPDJ8U/htgbFAJGgUjEZ4RSyNOBvJiJwdWRP5eJr9NMW0juno9Ijpm6c/mGE1Qz6jLQqiBFGbox7OtJm5cOZvs0izZs6qnfUk2iW6MLpnNmv2gtkHZr+LCYopi7kfaxuriu2O04ybG9cY9z4+OL4iXp3glLA04XKiQaI0sT2JnBSXtDdpbE7InC1zhuZ6zC2ee2uezbyCeRfnG8yXzT+xQHOBcMGRZGJyfPKB5M/CKGG9cCxFkLI9ZVTEF20VPRcHiCvFIxI/SYXkaapfakXqcJpf2ua0kXT/9Kr0F1K+tEb6KiM8Y1fG+8yozH2ZE7J4WUsWJSs567hcR54pP5ttkl2Q3ZfjkFOco17os3DLwlFFpGJvLpI7L7ddyVbmKK+obFVrVAN5U/Nq8z7kx+UfKdAukBdcWWS/aP2ip4tDF/+8hLBEtKS70KxwZeHA0sCldcuQZSnLupdbLC9aPrQibMX+lbSVmSt/X+W8qmLV29XxqzuKjItWFA2uCVvTVKxRrCi+vdZ37a51hHXSdb3r3dZvW/+1RFxyqdS5tKr08wbRhks/ufxU/dPExtSNvWWeZTvLSeXy8lub/Dftr9CuWFwxuHn65tZKvLKk8u2WBVsuVrlX7dpK26raqq6eVt2+zXJb+bbPNek1/bVBtS3bjbav3/5+h3jH9Z0BO5t3Ge8q3fVpt3T3nbqwutZ66/qqPaQ9eXueNMQ19PzM+7lxr8He0r1f9sn3qfdH7z/b6NXYeMDoQFkT2qRqGjk49+C1X4J/aW/mNte1cFpKD8Eh1aFnvyb/eutw5OHuI7wjzUetjm4/xjpW0oq0LmodbUtvU7cntvcdjzje3eHbcew3x9/2dZp11p7QPVF2knay6OTEqcWnxrpyul6cTjs92L2g+/6ZhDM3z84623su8tyF86Hnz/QE9py64Heh86LPxeOXeJfaLntebr3iceXY7x6/H+v17G296nW1/Zr3tY6+KX0nr/tfP30j+Mb5m4Kbl/tn9Pfdir115/bc2+o74jvDd2V3X93Luzd+f8UD4oOSh1oPqx4ZPar/w+6PFrWn+sRA8MCVx7Mf3x8UDT7/M/fPz0NFT5hPqp6aPm0cdh3uHAkdufZszrOh5znPx18U/0P7H9tf2r48+lfAX1dGE0aHXileTbze8Eb/zb637m+7x2aOPXqX9W78fckH/Q/7P/I+9nyK//R0PP8z+XP1F7svHV8jvz6YyJqY+IFNHAUhfPw7lwRLUoUqmRKPDgvC+dmybJUCn50jFElwLp4bHRb0f+OUlG0AbWsA9O599wBg5rfjG7cBwN/48m9Cv+cwDgDmBoA2fPey6wF4YwBYea40DQcA4EfH4D/0wI2WpEoUErlIgsdJJflSeRrOz5aLpUppthyXyvG/1fQ/+fwP+r7nd2ZWSgqUAAD87JxFCmlauhIXyJUShVyolGbLhTKcny3LVuD8bHlutkIpVWVNxl2dnb0BclPdXAEAAGEEAxD/mJh4Yw1ArgT4UjYxMV43MfGlHgC7D9Cl+icKP9n2Ik4o3AAAAAlwSFlzAAALEgAACxIB0t1+/AAAAYd0RVh0UmF3IHByb2ZpbGUgdHlwZSBleGlmAApleGlmCiAgICAgMTc0Cgo0NTc4Njk2NjAwMDA0OTQ5MmEwMDA4MDAwMDAwMDUwMDFhMDEwNTAwMDEwMDAwMDA0YTAwMDAwMDFiMDEwNTAwMDEwMDAwMDAKNTIwMDAwMDAyODAxMDMwMDAxMDAwMDAwMDIwMDAwMDAxMzAyMDMwMDAxMDAwMDAwMDEwMDAwMDA2OTg3MDQwMDAxMDAwMDAwCjVhMDAwMDAwMDAwMDAwMDAwN2ZjZmZmZmVjNmQ4ZTAzMDdmY2ZmZmZlYzZkOGUwMzA2MDAwMDkwMDcwMDA0MDAwMDAwMzAzMgozMTMwMDE5MTA3MDAwNDAwMDAwMDAxMDIwMzAwMDBhMDA3MDAwNDAwMDAwMDMwMzEzMDMwMDFhMDAzMDAwMTAwMDAwMGZmZmYKMDAwMDAyYTAwNDAwMDEwMDAwMDA1ODAyMDAwMDAzYTAwNDAwMDEwMDAwMDAwOTAyMDAwMDAwMDAwMDAwCrYTTMcAACAASURBVHic7N13mJTV+f/x93nalO0Lu3QQELAAAiKiogiWoLHErsQejTExmsQkJtFYkhhjrNForFETE40t3yQmxkjUWLCAjSJFpNdl++60p5zz+2MGRH8ugsIWuF/XtZe7s1POsw4zn7nPee7jIIQQW+LSZljcAGscSCtYm7QY8ICm+9hiYvHf4ufuIKdnUJZ1eb93QD8fdrsMbv8PoDp69EII0a7sjh6AEKILWHonzM1CNoR+NiQ8Rdkai+OPNaxuuI6yvhei/UF0n/sYE9b59AodDliu6T4aLlkBA/8E/7umo49CCCHajQQsIcRnMFDxISzqAX/YF46+DUas8nCWhaxovgjb+znNH2oS3QaT61nOguHPMLfC4YVxmleHw8tFMHw6PDQBbvlnRx+MEEK0C6ujByCE6ALefw7W7QvKwAX/i9Hc6EP1FFTiRoImwDHkasEr+TrxxvMZtMBnn/c9usXh7UOgWcFtvQHT0UcihBDtQgKWEKJtXzFgVsKEY+D038G5z8aY25jDTu2BW3QPOh3DBBGOZ6PDgNaVHsb7BX7f8aTLc+z9XAy1CG44Aspe7eijEUKIdiMBSwjx6a4xYK2Aw2Lw2GT4y7EOc+7NEU93J9nnHqKgH1FriHLzSw2U66JCH52uxnFvoXVZNe/mcpz/L5fHHoTdesDMkXDsEx17XEII0Q6cjh6AEKITWvI7+MvfwB0EphKSy2x6jdXU9vLoNekW0rUHENaHKO/j6ziV4xFkcrix8VQPupalx36Te+cErMtYzFqp6X0sjF0BzQZK5cxCIcSOSxa5CyE+wUA0C1btAruuhub+iuIWmw9VxODRV5LNfpuwToOjQH2iCm6BFVnobIiT3Iddzqxlcv0brL/Oonk19HkcMnE4cx9AzioUQuy4pIIlhPhIhYEGYN/3YOATsH53aEw7rO4X0GPV6eTsnxK2gjEapT7l9cMAjkVgNDSAH7ueJjWL4itf5BtFNhd4EQlAKYiXQLalnQ9QCCHahwQsIcRH9gFeboYzbgUUHFPj0LIoIFl0AEXOrQRphdEBynE3ez+O5RCkfSwvToy7SS09hD8sWMm1p1qMnauZZKD3u7DbKPipTBUKIXY8sshdCJF3/Xr4D5ApBaNgj+U2/rQQp2kXkvZdhFE3/JT/meEKAANOzCPbEGBiQ0k4t1GS9ei2h+bZKYoPL4CZN4L3Aqz63XY/NCGEaG8SsIQQsNSA3QoP1sCp/4ADl1scOiciXlVGjxG/wfaG49f4ODFvq+7Xjbu0rg1xio6j/8E/YthMuHiFYvo9MP9P8H4zPNyC9McSQuxoJGAJsdMz8CDw5C5QWQ21tuLa/oaVf1e4Q35GtvEYWlflsBPe5wpCrmeTXm7IpK/Bm3MMC/6jufBDF2UgOhZm3LWNj0cIITqeBCwhdnqD4eor4SQFRwORa3PTC4bowm+iMxeTrQuwYt7n37BZKYwFOgWm+C6K7aEklwVc/pTL4Q/BoXfCew/DFVLFEkLsOKRNgxA7vQYw/4MXxsBvi13WLAsp7jOFhPMgYQsQ2Shrs+lKfVb2UpYiyGqcRCmxipE0LvkL6RMD/lJkMbOP4cUqGDYTHjgIbn162x2aEEJ0EKlgCbGzutKAMfA9A1cCfx3qQnNAlRlO0rsX43sEWYVyNxufXFeh9BY8nuNZhOsjtDeRopE34PxBMzztcLin+OdN0OzA3ZXIeiwhxI5AApYQO6MbfahvhAOfgzdfh1f+5jDzqwEJr4qKPe8jzPUl0xDieFabgccAMUWwIotu9CE0WzCL6Clal4EVfYv0qPNpCXI0zIlReg/ccCj0fWMbH6gQQnQMCVhC7HTuh8eeg+UtcMBhMGK8Re+DFRdOd8lEdxAE+xLVRtgxp81wFYFV4sI7jex9QDd+delQWNCCl3Qg2txjKwvLCglawPN+QWluP+bbWb76Uown7oRu1fkWEYf8a3scuBBCtBsJWELsVAzQAL2qIPcixOYqat52yc4KqHnnGsL0SQTrNcTafm0wYBUr9Ko01PvMvGkkR+5VButy2O4WvKQox0H7AUG2Grv6JuL1fUgvzXH3+Q7XnQ6jm6C3gcUyVSiE6LokYAmxs7hoQ2BZDH/7LTx7JixY6dEU5jCxc7FLf0iUJr/BQ9vL1pUDJm1gRgMvvXEIAO8szYJnEektDEXKcoiaffD3o9fon9O3v8uMwREDXrPodROseBOeA0ZLyBJCdE2yVY4QO4OrDSxbA6W9oPkOMM/AQQ95tMzM4eYmEav+FdkmGxOEKLfN1wWlwPJsoqdXc/OT4zlwcDEAu3R3QRmiSKPsLVmmrhTGdvDrNU54Duv7v8c+037D+B4WHKPo1WyIAW/z+btDCCFEB5IKlhA7upnTQD0HZWvhnBPgqDlwwK4Olf/x8eqHUTngVvx0FVFLsLlwBeCUuETPruO4nwzju0f12nh5r8oYGLC35GzCDZSyCI0myoHOXIvXdCivLo5427E45wKYSj5cfev/Pt9xCyFEB5KAJcSObu9DYb8muHU06IvALrPZ7bmQWEUF8UG3kK0bSa4uh/I2u8dgotwleLGGnodV8dRVewCQ8/O1qt4Vbr5spdm6ipPjOgSpgDAqIpn4DdG6QTT8O2L4FJunyd/nlAZYKfsVCiG6FglYQuzolA2H/xWGpcEPLE5vifj9HEhU/Qy/5QhyTT52LNZmMoogWeaQeacJqmKs+st+AISRwXXytymKW6AMbOkarI1Mfr/CXI0P9h5UDLkBvXsRt58X8eu1ivvOgKsOgzviSH8sIURXIgFLiB1eBIP+DPFaxUmz4Lc5mHrJJeRSF6HTPpbtbi5cxUsc0svSsD7Lwv9OxAJSOY1jf+I2noIw2vo1U8aAk/DIrPXxU8dTqS7l6mlQ4Vqc8DC83Rc+/MfnOXAhhOgwErCE2FH93MA8A48ZWAwM6W9xx1RNUeYoQnM9uXRIEDptboNjwEoosq0BzGnlD4/sy5Byl1RWU7Shi8Omt6yIE2UN6nNtwKXA8lyi1hBarqYifiyxmohfrHKoewQmXgbr7oKfSBVLCNE1SMASYkf0yzSsrYfv/RueqIOD/2pjPoxg8V4UV91F0BojamVzndqVBdpY8GYd510xjDMmVqGNIRnf5GVj04BV6hDlIpStPt9snrIUQWBhshCvvoOoYRhN00NGT7J5qCecOQ4S/4Klsh5LCNH5ScASYodzNzz5FLy3EPoOhYpuFi9+RROmeuBV3kfk9yFqClDxtju1A1bChjfqGDylJ/d+ZwgAxqiPZSq16c1LPMhG2JaTX+y+1Uw+8PkNEUHUB6viXtRBxYxfAnsUWZz0Aby8N9zeE1mPJYTo7CRgCbFDMUAFeHvB/FfA+UCx8D0r38A9cyc6GEtmnY9KuJsLKbGkTTSnBfrFWfTgOABykcH+5CvGJmmruNKBrEZ9oVcVA3bSIbM6IgoOZP3q6ym3I1aud/naqfBsT+g574s8gBBCtAsJWELscGrgtbOg9gdQPNolWRcy4ZXrKE8ej98Y4sa9zd3a8iC3JgN1OcJXJwOQzmlin1zU/gm9Sl3IaSxnG3QGdWMWYYvBiV9ITXQ+61fmGLk6zsuXwnem5a9z0b1f/HGEEGI7kU7uQuwIrjYwDDgNMBflLzugIcbMpTmi6Ov07/V9WtYYLMfe3Fl+ygWdMfBWI9NnH4YNpENNcjNbE2IABT3KXD5I6230sU0piDS62cIt/xk90/PgvVf4wXc8iHy+tAyCVXxUhZN270KIzkUqWEJ0dUtuAncZLJ0DY2bAngZGBx7dVuXopg6h//BrydbbWJFBtb3HIICxbHi+ll8+OIb9BhSBNiSdzb9MbGh91aPCgyAs7GK4DdZIKdtCZ0KiTE+67XILpT16MaqvT9lLDpk/Qq1HPlhN/eKPJYQQ25gELCG6NAP3dofoefjxcBiUg6GrXHr8yydoGYZTfCfp1d3RLSHK3ey/d6fUhefWMul7g/nx8f3z995GB4cNNv1tj0oPtMLoT/7mi3BswqaIbP1Y4r2u524Ffz4jYrevWxx4BrQY4JFt9FhCCLHtSMASoks7CH55E8w+Bw4CwgqHtd8J6FFSSmnFHeQahuK3hhBvezlABIlyh/ClWryDqnj+58OBfGVqS2KSKVSrepQ7EBn0Nj3DTylwFVEuIkidwSmLv8+p6wwN1Ra/eFYxArjAwBoD78mZhUKIzkMClhBd2stg3oPBF0HRozZ/3T2k+HFIl95IlD0EnQ2xnbZbf0aQrHTIzG6GYpvc/+0PgK8Nn1G8+kjhej0rvHxX9m2dc5SyMCHk6iHMXkHRwim0Ph+y/+4OSxXcfQ6cfyPUvQXLbtvGDy6EEJ+PBCwhuqJfG1ho4FoDhwGP9rfoe6rh5BDUf3+AHT+fMBVitAVtrLuKwCtTpJdnYZ3P6lcPBvLtGLwtTldsDFTVpR5oDRGfs5v7ZijPxm/20bkyEr1vIJ7YleKGgMuNw/V7w9Pfh0kXwYBvb+MHFkKIz0cClhBdUeNj8N0P4fI7YOY4GDzWYsVCTfj28ZT1uYpcSkOg2lx3VdgGx2/WMKuRR/+0D73KPCJtPrMdw6fdF0CvbrF8uPqCh9bmg7gJj6ghS65lOE759dRWx7m2KCQcaOEB6rXt8shCCPF5SMASosu5GW59D/65P5w5CE5/02a3IKQ4HEu8223oVBG6JQTP/tT5OgPYCsey4JU6zrpid06ZWAWAtfmTDD9VVLhNn26FxvBab5+UZQDlxdGtWdDHUxZcxjdScMQyUAsV786Edx+W/QqFEJ3Cti7kCyG2KwM0gHsyBCkYOsFmzqoIbXpiJx4hbB1GtimHnYy1uRjKgqIil+xLNQw9thf//eUIAPzA4Gxt9aowJEuBVorrb1qIt2sRYbi9Qo4FJrIxOiRWOZG65bNYMnk+KctmljEsbIKqRfDggXDLP7fTGIQQ4rNJBUuILudZSD8OLFc8VqLZd4yNXXQHVjSGsDWHm2g7XAHJhE3q3UbYtZQF94wFIJXVeO4XKztZtoKkg/a32zwhYEC5Ct1qkUs5xIp+R92Hu9O/McKNWYyugVf3gHu6I/sVCiE6kgQsIbqCXxo4pxAYzALgAph6jMVUY3jv79fjFR9PqsFHebHN3Y2dUKSXpCAX0vrCQQC0ZDRF8S/wUlAIU66joMwhzBmUrbZjvjGgEjbZhgCd6oWv7yVaE2fC3wxf+qfi0N/C/v/JX/UcCVlCiI4hAUuIzu6D+2DwTfAP4KiFMPlBmLLEQe8WkV1xPv0Gfw+/VuM47ubuRtmKqFHDh2me/dsEihRkAk1JYtu8DHiWgiIHk9OorTkL8fNyEy655hASB+CV3MybQw1XfNPhO7fAEYV9Cg8IYKmELCFE+5O9CIXo1Aw88ifIAAnAsaDEd4mvDAhKDiHR52YydQoTGJTXdqpRhYagr9fy/TtHcfgeJejIEN98c/ctsuFBbYASlygd4VXZRFpv/1WejmsT1RniVV+nIXgXO30PF6x06d03YCawyIX1sHHDRCGEaCcSsITo1M6EK5+DH74FY5dDr7UuS9IBdtUgvPh9ZNYX4+c0jrfZpGTHbaLn1zP2goHccNoAAJSltnnkiJc7ZFeE274PVpuUwvgav9GmrOo6sulZ1Cx+nbUpjxUZH78Wnn0emNNeAxJCCECmCIXo5P4IZg2U/BH6vuZw55oAv0cRtvMQfnYXolyEs5kyVASxYodoRj2MK2fGr0YCoI1pq/3oF1JV5EAuyi94bzeehZ/RZOoqUfbvsNzu/O3HPvsVOUxOgvkl+flVIYRoPxKwhOiMfmFghoGLDHwJ+ONeNgNPibj+JCjN3IFlTyBqjVDOZsOVXa7IzW+FhI35xwQAtDafq99VWza9p+6lHmSj9n9lcRyLKBdBNIpc4laefQomDtHcXmszAfi+yW/j87asxxJCtA+ZIhSis7ndwIfNcMkz0LAWrAUWQ861eGxmRPfM5cQqz8Kv1yjV9jY4BqwiRbQ2gBVpViz4Uv5iY7C2xwL0whKn6nIHfF0IXe257knl5zyjZk28fCo3vjSLeOzXjO/l8Y8LNPX7Glbm4JuD4IObYMil7TQuIcTOSipYQnQqd8Kjz8DyLNx1CuxzCex1vUO1HdDfPZXSfj8hagatNW1tx2xAxRSWb+CNeh56Yhx9y13AoLbHvGDhMQGqy1zQpvBjey8qVxY60EQpRbe+P8Z1j8RL+1x4o0vyd/DohVDZCjfsivTIEkJsbxKwhOg0DFANczVcNBVGHgmxDz3Wz/ZpDscRebeQXpNE53yU47S5DY4FJZ5D+FwN5/56JGceWA2ANtsv8OjCf7tXuPkfTAcFGOU5RCmfXF05XuxGGnoMYsHjPkffkm9hMfwEqHy9Y8YmhNipSMASolOZDg1fhmufgbFnu7g9fIrpg534HSbVE53NoTyvzZsrKC93aX5uHbudPYD7vzEIgFxg2qp3fXEKjMoHqqoyGyLTsQUiFfOI0jn8cHfKrRup+2ucu1XAcdNsHroFvgEYBT+QKpYQYvuRgCVEZ7EPYG6BQy+Fd2dbvDUq4KU7Y6iK2zFqDLlUDhXbbKf2ZJlD4/R6nDHlzLt9NABpXxP7gtvgfKZCCauqPA6RxmjasVXDp1COh9/kY6zj6P3bH7L6AHjzUMNdRyl2+SW4Br51eQcOUAixo5OAJURHW23gW6tgzBJQGtQoGDHGoIdCbOI1hOY4crU+ttN25SoCu8ghPS8NnmLNU/sB+XCV3HyLrC9M5R8egB7lHmiwOrw4ZCks7ZBdH6HT13D4zOOZsF7zpdp80gzfg4dHIGuxhBDbiwQsITqUgfOAq/aA6Um4pgXCMyz6aMPk6V+nb8VlqLoQpZw295/ZcMbgOh9WtvLkH/ahe8ImCM12D1ef1KubA5FGoTu4cboBFbPQWY3dCqX278itGMpMTzP96xbXvwP9V0A1cIaELCHEtidtGoToUOfBv+6HR1+EPZfBmlab7t0jsnoS1eW3k6sDY6z8HjmfHgSUq9BpDe/W8d2bR3H86Aq0MTjt2uwzz/GcfOcI3RlCiwEVd/FbA+LV1djB/ajs4RxxT4YmFA6GAUCyIV9F7C1b6Qghth2pYAnRoe7Pn3Fn7wnjx9m8G0YErYMw5o/4KQ+di/Lh6tMpBbZtwRv1jLtgV24+cwAbgtj26siwOZ6noNjG+FEn2frPgBNzCWtD7PgEsG7gtPlwPYrwZHhwHtSWwwOF6wohxDYiFSwhOsLXDYwDpgGHAQvrbZZfHDH50GKcAx7GivqQbo5wvM0uFVdxm3BmPYnx3Xjj2j0BiDTY2+2UwbYGkv9P3LUh6RBlDCphYSLTSYKWa5Nbb4j3+hbrGt9h7cz7OeEWjwNX+Zz8e7h8ITCjowcphNiBSMASoiO8PQSW3w5rVkDqVYspN0Libli+7C4c9iO7PsJx2w5XBqyEjf6gBZIu6b/tD0BkTPuHK2DDQBMeUOQQBgqrSKE7T1VIYYwhuxa88lsIWmdR8/oMfnKoxwDP5y9f65iSnxBihyVThEJsdyb/Zb4HZPNTguvroc8wGHa+Yq/rXNKrI5Ytuop4yVdJrzGw+XCl4gpdG8CKDLOnHQzkN3C2OygkbHjUWMyGIpcoHWLZ1kcdSDsD5ShMpImiEtzy+4ib7tx7lc89nsNJwFWF/Qpf7zShUAjRhUnAEmK7MtC/8O3FFwLvwRyg52UKsi6paQn0hzla9FRi8Z/SugSszTQ5MICriEUWvLqe+57an+FVTr41QgdWYDYMOOZaWCUWhBrVAYvsP5NyLaKmCBhJ3yN/w/rfwNhBildvtPj9EzD6z1D3P1h4U0ePVAjRxUnAEmJ7ePsZMFOh8QzYb0X+sqIE7DVOcfMql9LdXNzdA1wrDcmJxLybyTXbKCvc3KJ2FBQnLbLPrOHc20fxtQO6AYbtuAvOVokr6BazIR1idcaABYCt8NcbgvqpnFl7GdkPAsYc47L8RHhnGczaHa4fhix6F0J8ERKwhNiW6gy8ZmDBFHjgj9C0EupKoTuK5S0evd53UN0C4t19MktHQenVKOthgtYeaD/M7zHYBmNIVri0PrOekecN5P7zBgKgdedZPmQDlSUe+LoTv7ooC2MiWpZCdu0VNOsjWPtKjmOei6N+DD/qAcWLOnqQQogurtO+BArRdZiPvibOgvsWwamAOx9enaSI4TFqjoWp8GnMBPiNE0lU/A4/egrbvgqd6kuUC1F22+EqNDgVMdKv1FOyTznv/WYvACJtsDpgUfsnqU1OFexW6uT3I+zMlONgooAgW0wsdhN9inclLMlyzByP256Cn63P71f43U5+HEKITksClhBb642XC7NHhU2NL1+Tv9ycBHNaYUgveALF+3vYLCoBx/OpHREROsfQz3qcoOlxotw3aF09kDAbYog2G64isCtcwnnN4CnmPzE+f7HumDMG21TIIt3LHAjp/DNsynXxW3yCaHfKDvwVdetKqPqrz6PjbPa+EkbkwHkNFv6Izn8wQojORto0CLE1FhlYDDxh4JhF8M+boaI6/zv1OJw43+LVxVDyb830oyL2/GYxau3J7Lr4HNz0KLK6mMw6sKwIZQBtb3aCb9NtcJa28s//TqR30iGKOkflaiOVjyAKqCxz8824OkU3981R4FguYX1AmhMYMvh93jv2Sg5aZliyUFEaGlZVftSDQgghtoJUsITYGue+AWuehTKgtAbengAPNitG11kMBIIFmqoKzZvn9qTa+hGr3n0XJ3MPUe0EmpcUE6Y1tq1RloVyNh+uABVTqMDA63Vce99YjhxehjYaZalOs+4K8sFKm3ygqixz8+HK0MnDSeGUTGMswiaDH/yUAdOP54NmzQnPW0Rvwxk/hZIX4YiOHqsQoquRCpYQbSpUYIyCfgZWKii1IaPhIaC5yKLHM4rjFkYs3cew/gGL8tOHkMqeh7/iTOx4NZYFQQ2AxrYVqC3+UKMU2JYhfKGOo74/lJ8c3RswGKOwO+NHoxDwNkwRms7RwP0zGVCuTZgNsYocrNI7MM3z+e3e75M6wMI+V/PEDChfCreug+/06OgBCyG6iM74Mi1EByssWF/1eP7HGf+C5tZ8E0pTpfhvT5uT51rUlWoeHxHxyuAkzeF4Kr9yLy2rZhI0fx+CajKrDVFG5z/HONYWn+tXyHVWwiZ8s4lBk6v4x5W7Ax20Dc6WUBAWqlXdyz0IO/v04KYMOHGHqC7AoifxsjvoqcqpvkhTt0ZhamCZC680I2uxhBBbSgKWEBvUfgjR8fnvn7wBHjgJyEK0PxxcrBj/F4fmxy1Wj4i47w1N94Yqug89lh49/oztTyfInYsOisjURUSBwYkr1GZ6Wn3ShmAVUyQqXKL3W6DCZc5fOumi9k0ogCj/fWWZB1GIMp1lH8ItYUAlXFrXBtj2wVR0+zn/vQosy6LkFZjuwRPnkt9AUgghPptMEQqxQffB8G8DPwdqFJQCB62zuLrZxi7SDB4fsuRvMHD1QLL7TyHmTSVXOwGSELVGZAKN6znE4jZmKyodEWCDXeTg2YpMg09mRi1kI95+91ASQDY0xJ3OnVY27IpjeRbYLkQGpdiqP0XHMuAlXFJrQlTFRZyz4m3Wr3gA/yyP557zOfSlztNwTAjR6UkFS+zENulf9cPm/EXxwteSsTbTajz0CkW1Cmg5NSIKxtDvZ1eior9B053kWicQ+QG5dQFGWcTiLkqpLU4UhYqPU+ZQXOYSrcuQeakW5rcwfFwFDz69P6N7xMkFnT9cwUcvJvGYgqTC5MIOHc/no8CybXKBJpW4lUzReObN8fn+SJcrgJsL+xVO7zKpUQjRQaSCJXZCGxavV0K8HrIKTno/f9k0bOYss+nz3RDr9z5mgiL19qH0eepoLP8YWtftQuCADn3CWoUTc3CS+SYFWxOsbLArPOI6IrW4hdZFKahOcOLp/fnq8b35yt4VAOQCQ8zt/OEK2HjGYFncgbhNlAOVUJioK00VAspV6LQmipVSNeAubP0legxfxyN32ZQNi/hDDVzbCxbcBMMu7ejRCiE6KQlYYuexegEkbodyBd9aAX9cAzlAGbiozmb0PJuf4zN8VcQe7yRY+c6x9HvnK6jkJLJrq9EREPn4OYXjebiJQqja8mClHIhV5vtEZefUk1qahWHFXParEZx2ZG/26hkrXNmQ8yHmdZ1ksmGkyYQFMYfQB1Wk6HoLww3g2uRqI+y+e5Hrdhv9/VPZd7zNxaM04+cafrwn/GcdH3X/EkKIj5MpQrHjW1eoLvUeBtNvzweqGg1n/ANGLbc59V2X/btF9PZ9Lkx1p4/7bea+9SzxxL3kcqeQbqomSgeYXISyPNyYC2xVxUo5kKh0cRyb7GsNZP+2FrtXEX98fD/qX53Mr84dyF49Y5jIkPUNke5a4WpTRXEbiiyiIATL+mhxVldjxyzSawyWdzIfvn8Z/kyf734Qg+FwnYLqNR09QiFEJyYBS+yANllbZQz0AB5ohuREYFm+r9UeOZsJJ9r0KY4oSQQ8Wz+ImHsV65f+j7KymyF7INm6YnQuxAQRynFRbn4SbEuDlQHlQrzCxQSGzIs1BM+tZdf9K3n19UmE/zyA0w+posKCMDL4kcEoiHuq054tuFmFIRclLIjZEOjO2a9riymFpTRRGkqSPyHo/WWKmrPsVRtj1u3wk0vyVzvfwIq/dOxQhRCdjkwRih3IC8CdgANTFsO/+8PPCr86dx94fAHUY3HW44aZRRGHvwGre4+g0b8Qs/Qo7EQ/gob8tKEdhRjHQrnORzNAWz7VpVwFjoWpy5J9uQ6ACWfvwpM/2Y3qUnfj9cLCmXa2pegC69g3r/DnKY47lMYsmlMhqlN3ct8CyrHR2ZBsSwllo68nXLyIQXMW8M2pLtlzAwYB9yi45EVkulAIsSkJWKLrW2Lyz+S+wMlD4fHHwS7N/069CVV7WPzkenhtuuaNYo1z+WJd9gAAIABJREFUrMPoVRNY5l6E1XgItirHb4Wg1eDaBhsFmwarLaMUODYECkxNFua3QoXL1Mv35E/fHvSx6/qRwbXylaod7cz/pAUVRS7N67JYVpcuYeUpxyFoCUit3ZOSnr/Gqp3K4vdTHFZmsy4ZcU4tPBj77PsRQuxUdoBXP7FTMwYGKri/Pv9zjwxwPoz0FSM+sLDGKcbO1fxpmWZFjxL6J06i+/vTyDY+j+ueQK6hnFSdxtgG1ylsZbMVkUeB5Sm8OJjQEHyYhlcbwIerf7c3Zv6Uj4UrHRgM4Nn5YLUjhSu7cCwOUFpiQ2jQXXX91ccosF2HqDUkaD6GMPkj9qiA4x43VL1vcfg98N974c9pOLurLegXQmwvUsESXc/uBvaeBg/vCw8WLqtwYTJwSIXFhKMU172ombq7Rg2Hoid6U3HqMUSNF5JLjcSJQboWLDS2Y23N/oBAftG6q7Bi4GhDrt7HX56FXEjJmAruu3sMJ4+r3Hh1bQyKfKCyukrLhS+ovMSFwIDaIRIWYClMpNCBxov/iGTzbJ74wWPUuQ7fGa+pqYJdgH06epxCiM5CApboQgrVgXnA5IFAIzSXwKAjFbNaLMa+rLjiyJBzekH3/i5R7VBmTTsOU/81WpbtQiwOfrMmZwyOZ29VsCosr7FchVPkEOUCoqU5orUZSNgMmVLNI5cOY+/+yY038QODYyusrrhg/XNQCrQBS0FFiZP/YUfJVxs2hdapEN92iJXfQOvChaj173LA3jZ7PhHx85PyZ6jKWiwhBBKwRFcw81nY+zZgdzh5GjzeB3wN5f0Ub79m0/M0i0W9fRJz4eywmKbcOJJNxxBFUwnWVGEAnQ7IZS1sb+uWXRtAg5VUxOIOYYOPv7AB6gOKdyli4jd35d6Ld6VXLJ/VdGTwAc9SeDtJteojCqMN2IryEgdCjWXUxgakXZ8BK+6QacyRcPoTL70ZOzqRQSvqmdXDQpnCxt4DOnqgQohOQAKW6LxWGFgBzAdmHA7fULC+EkARBA6TZisWDPFxG2G3sIqaokPIfHgcqvQosi1JtDYErT6WsnE8d/MP9gmFbWysIkU84RCuy5GZ2QihYde9yznxh3257qv9N149F2iwFJ6liO9suapAAWEEtg3lZR6ECtXlmox+BmPAS8QI67LAJOzia3j6um9z3R8Vf1+jIDKwuKNHKYToBCRgiU5mwzY2Kv+Ofc578Pu94N5VcP9FivJGh6MXKELbp9yG7LpdUN2PZO28E/GSB5NrUCg7wm/1sWwbJ+597H4/S5R/WKvMIe4oUivSpOfWQ1Jx2NG9mHp8P86e2H3j1VNZjeMqYq6cL4L6aEawotwGHdL1urhvIRWLo1M53G4XMfiid3l4zv0cMtxmmom4Cbi08HXzTpq2hRASsERnUXgjvnw2XDsCblwA1ELPEngqo3itzME5HUIdUN4AqZ7DcYKTKXWPIueNJmqAIB6hc/m+6U7My0elrdgf0AGvzMGyFNlFraTmtkDfOOd/f1fOPqkv+w8o2nj1dFbjuYqiuASrDRT5ZVcAxUk3X8zZ8IsdLmdZYHwXv1lT3O1G7Oa5RK+/Tv86h95WyLQWODiClXdD3ws6erBCiA4gAUt0DgbgX/DAkfmfhy2FMZUWS1otHppnGBQF9G2BeHoCmfIz8ZxJhMGu+PWAHWGh0YGN8ryP3s234F29EKzi5S6R0fhzm2FRK4ws44a79+LUo/vSt+ijRUQZ3+A5kJRgtVkqbufnCiOzY+ar/H6FFlFrROCVY2L3UlY8mclVtSRqLUau1Lw8GpiLLHoXYuckAUt0MB9wC1WOL0PcAGnFg7vZ9H4vonlIyKr+iilzjiXL10iY8fimiux6MDoq1Eys/FY2sMVv5Sa/P6BVbEMWsjMbYHkKJlbz5B2jOW7/bh+9JWpDNgTPVSS66P6A7WVDX6+KpAWeIvKj/IU7XsLKUzGbbH1IonI4nv4ts/97CkVHONzxiGHyPwzr+gNnwR0GviXPHSF2JhKwRAcywFvAIGAF3DUMvoLi+NcMRbuHOOOShA2ncvAbX6O8ZAy2F6dlLdhKY4xB2RafY4MZZQMxG9MSEr1VC80h3Y7uyUv/Pog9BsQ3Xi/ShigC11FsWMklPkOh2Fde7OQLPL5CxQtnF+6oXM8m16wp7nUyQ/d9j2z6l5zyyxhPjM8BkAR2bYaJBv6n4HjgqQ4dsRCiHUjAEh0sB1SAqQSF4tHXDF7P7thN56BXnY0V251ursJfB8aJsO18t/XPs42NB6G2MY1ZmFcPtsX4Mwbwyi+Gf6yTQBQZlKWwlMLeunMPd3obJk5LihzwbLQ2KMvKn323wxZwlMKyDKl1UDb4Mlg3Cyf2NF993yOb9ek3BuqBVOHqZQZ+UQNffhlGn7Dp/XTA2IUQ24ssJBEdxOQLWIlWGD8d1BKby0JD34EnUJmYjcn9Gs0eZOoVYVpjx0DZW9ccdNNtbCJDsDyDea0GVmY46/I9MMuO5LVNwpU2+Rxg2wprB9vGpr2VJW2IKXSwA1euNqWUhfJDWleUEo/fTGtqEMtf8yntHmPxfMXL9YrBheu2AE0fwPrZ+Z+nzoOfGTj6qfwvR29oVrqT/O2E2EFJwBIdRwGZw6Fof0XxLoaaF5O0Lr8Bk+5JujYkyhocj3wJZAsVlvxYcYXj2ujmCH92Ct5ughKPa+/YGzNvCg9emN8fUBs27pcnoWrbKUk6+c0J/Si/G9EO09F9M1TMQadD/JYhxKp/Q//BLov/m+Pd3eD0FKyutxn7iEOixqa52mLu3vlnmwHWGWheAiyG434Gk5pg1YZfCiG6IglYogMUqld/imBhK/Ra7HDoPzSZ2Pm45buQq9G4SQdlb1ncMeSDlaXwyh1iLuhVPuG79bC4lapx5Tz05P6Y/xzIT47tDeTXVwXaYCnYivgmPkuhQWt5kUM87kCgd66ZL+XYRLkIwqNIF/8ab7ceHN7Qnf2HG7otjhgxOqTb6oi7h2jWzLKZuNAh7ju01Nt0H22Bq1g4EloU1Gxyv6cb+KuBRzatbkn4EqIzkzVYomPYgLbhGMfiXaU5dFiSxtbzMQ2qcCrhZytsY6PiiniRQ5QO8Oe1QE0WVR1j8kn9uOaCwRzQP5G/emTIAa4C21I7zg4unUnhjxr3LDzXIpvbGUpXm1IKjEVYC1by21RUfJnAn8dZ6+eSXT+fVr2QnLeeb7KGVyvSlGUhlYDK7jDvZZt9jrZJjVL0aDD8vTRiTwxzMTQCawEVAg58azo0jYfr7oIDL4ClHxtDRxy4EOITJGCJdlbITn4AdgAHf+gwdLXP+vgFJHoOI70GbG/zNaVN9wdMuuhGn8wbddAUUjW8jNO+NogfnNOPvvH80zsXaLSBmGvttNvYtJcNobXChj7dPZrrgw4dT8ew8q2/dFYReUNoWTWEIH0MjgNORR3ElrF+znyq916AChdg9BJMtIo5v1zF5GMjsquhfx8Ikoru0xxOeluhUjC3WdOzUoOjqU9AbQQ1y2B1Gp67F244A/5UCVUGioHWDeORJ70QHUEClmh/I4EqFya1WKzuEXFcWMJC5wz8Rgfb02xu6tqAnXDwEhZ+bY7M9HUQGnabXM35J/fj4mN7bXxS54OVIu5asraqneQCcAopyylxQOmdY/3VxxhA5bdhDOpDIjS2C9oogpZu6FQ3/NwYrAjsZIQdW0nLimUcOeNDotx8ovh8anPL6J9eSPzuDPZh4CyC1/eCPo84XNjbJqhUNKYNM8ZFlPiGpqRhfQzqADS0WnDKOriyBzxg4MZNxyf/GIRoDxKwRDsqVK/eq8//d9wSl33rcsxPnofXbQRBjvzK6E95A8i3EyVe6pJdlSMzux5iDkedNoBLzhvAoUNLNl41k9NYjsJzJFi1p1xkKCqUCM+7dRGzX6+DoUUEmZCdcj5WKQUxJ/8qawBt0OkIjUbZBmxFlLbJ5QZgogGY4CCsOCTKGiFaxxtvLKdo7GKiYBZRchGjmceTU1cwZRVkU9C/DN74vcXIoQ5/3UfRqw5eCSOIaYgbalyoBVqzQBzOWghllfCj26D3t/MfdGaBBC4htg8JWKJ9fQc4rhLsJTaNe/vwdAWJ/ieTa3LAjgptQD/OkH+mBobsf9ZCmcN3r96Di07uz6DuH3UADSKDUvn1PxKs2pcfGWKFcxK+fOVc/nXXhzC2Esuy0OHOvBh702NXCuXY+ed4YZG6CTVRLgTAsg06axHUl6PDclQ4DKPAMiHKraNxVi2TZq0k1zQb15pL0+q5DPn7HNa8lsEvgcoU3NofDnvBorqfTbZI8WaoSbn5SfVlJdA7hJoV+eEc4cPoBrjGwC5Ab2D1xrG2099HiB2XBCzRPnYzMB+4FWA1fNlyGPNqjtay0/H0OAgM5tMbiCpXoXyDnt/ENbeM4srT+n3s9xv2B3RsJW8LHSDS4BXC1bhL3mHGwyvg4O5YlkL7O3KD0c9rk9CllAWOtfFigyHKRGCDsgw6p8jW2yi7B6HfA8faE6/sSygvTVTXxFvv1+GVzEeZ2UTue4zlXaxvLKP1eU2yBh5dCT/tBmf+2OK+31pE2pCJ5x+pxjM0BFBZGMtqYFQK3hkAb7wOA1zoNQb5HyjE5yMBS7QDk/90fFr+W2qxmTU+h/VQd5IDTiLbZGFUiFL///MxAq/CJffcOo4+o/9H4coYfAOOkv0BO5KvDZ6V//v3Pf1NVj23Dg7tgdJawtXnoZT6aBUbgA3GGAg1tg0aQ7pRQUMS2yTx4r2wYsNR8eMJMhlyM1Povy8llp1FVDSbgcUz+PugefzntEYODjXNq+DSE+HEv0L/4xTrSxQLMdACIyy4fpqhpDa/QL6yzVEKIbaABCzRPp4vfNEI51o2idcinIbjCYIDUTri0xa2m3zDUGp9iOCSswcAkMoakjHFZ5xrKLYzPzIbK1f2MdPRM+phcjVkI4xBwtW2opRiw19TAbYyoPLp1RhD2ARRC0QUYZsiLFMNpePwrYhonaZmZS0HDJyN9mdRVPUmJepdlvdbTfRomnULNZcNg6lDoCoFjw63OPcDw2+GGugDB38ABwfQ04EL5X+oEFtDApbYzgwsA54Fghy8scbm6Vt9+nypmqEjTiXXCDqnUe7/v+ufhljSJvNWPQcd14tDhpUCkPCk43pHCzcJV+rgF2BJFmtSFToddfDIdgabPvuVQhX+6diFuccobUhl8qeFWMrGifUitHtB5nDCFGRbDFUl83HHzWK3iW8Rhm/h137AioH1dI+yjK/WqGeAKfmK8wmrYWlzex+kEF2eBCyx/Q3Y8E0MzrEtDj4jIkhOQTdNwujw41MiBSbfQDRsCCDQnH/uLgCkfEORTAl2qCDSuHa+fKj2eR7qctgTKolSEq46WCHxuh/vomsiQ1CnyWhwbQsnpsDeHRPsTqrxFEwGVFE9bjCbhuA9nl55M2fHllG03kJVaw4L4bVHOuaIhOjCZJJFbEeFLXEWAi/VwQkzbKb/MWBFYxWOexahAZ02n7rXoIZ43Cb4IMWoyVWcPja/ICQuHwk6jAH8IB+ucoAaOQ1aApz9u0u46tSUQrk2bswGR4Ex5Jo02bUhuZYQrSOMX0nYdCBEFxPpH9NntM0dVZpj71P8wobVl3b0QQjR5UjAEtuXAoYCZ7tgdlWMOQx69jsEk52M1j6W53zanmoqrgiaAkiFnHH2LgC05jS2JdWrjmAMBIHGcy3WtobEhz0DRhMbV0nYujN2a+/SFI5roVwHx3PAtokCTbYuIKjPEuXOYvGaMZxYA8VY7KvgmY4eshBdjwQssR2pj/akLZpt8d5DITW13XDU14lsCNOqsK3I/yfmWIRLM/QZV873JlUBhqQr4aojaJOfZfJci3lrMvQa9RwkbYrGVJBrlnDVtRU+3Chl4ZbECLIWRsWx1IXMuNfhT1+LsHdXHJEvfAkhtpxMuIjtx5j8qd7fBQYcoOgZh5r4RIw/CZ3zcWLup1avLEWQCqEx4pzCmYOtOUNxTD4PtDdtwMKAo3hhThOTj3gVesYp2q2EVH2wc3Zo31GZEJy4S5gOCNVZTP7KXbQEb7LiaYUabOCEjh6hEF2KvGOJ7UcpuHERXN1f8erCiJULSrGjS8CCMKfaOhfQciFak8PbPcnPj+qD0Yak9GRod9oU6otK8egrtUz+0iswIE7R7sWkWiRc7ZCUpfAzChO3qI++T/NFitcH53eTNE8WriSVLCG2hLxrie3nvGnwtSHwwycUBwyFshGTQB+E3xLgeJ9avUJBFBpYm+U75w4EIBOYNiYSxfayMVwBt/9zLacd9zoMKSExsJhUQ9ixgxPbjzHgeTZ+KkJFJ2Jdvj+9DRz0gEXvJ+Gk+zt6hEJ0GRKwxLb308KGZvcdCqA4YpzGfzJGLvsDXBvC8NM3dAYsD1ibg75xrj+lLwZDXKpX7cpsEq4u//NyLv7qGzC6FK+PS6ZxJ924eaeiFEEOLEeRWH0FR70N/zvbsOYEePzc/FUukSqWEJ9F1mCJbc9pgOsMlAANGcWtjQZvyBSMfwDZhhD3088cBDBYsDTFd28YCYDvG2LS96rdbFq5Ovu2D3joivdhYnfcYgu/1Ui42ikYcDwbv96Q7HY4HzYfypjHpnHakTa9kxHKgqBwPWnXL0SbJGCJbe+qPTd8p2Avw+N7Wfz+R5eRVJBNtfmKbLmg14dQHuPmqf0Bg+tK9aq9RBoK/UOZ8rP3efamhXBIdf79NCP7Cu50bAzGWJQ5VzD0wGmMboALihSyCEuILSIBS2xbxsDNwD7A/62zaCLisdSxOP5+pOoMjvfpNRADeDbMrePbhepVFIEtFZN2kfM1scJU7NjvzeKtB5bAoVUAmM7aQ3TD27yV367PaHnf37Zci0w9FPXcj0ULv8Kyuv/jHO1yUI+AlR5cYeW3RJTkLcSnkvKA2LaUgksVXN5f8fD/KRJLgTU/JJ4rbFL76fLVqyyU2Nx2Zr41g5KV7e0infsoXA08723eemgJHN4TIgWdLVwZ8mNS+Y3A7WKHeAxUpFESxrc929IEaY+e5d/jmdWwUBseMoqfWpKrhPgMErDEtmMM3GNgroGe0xyOOjGkxj0Bu3QcqQZQbcz3ReAkXXi3mYuvyE8vaiNnDraHVE6TLPQXK5v6Okv/vgpnSk/wO1Gy2hCqyIcqr9whmbDRKU00v5nsW83o1RlMayca8w7DVvgtoJP7cPqoMxg0N6Rqrcs7r8PjK8HIjKEQbZGAJbYddwR8S8G1VykWzFOs7A6m5BJ8Y+PYuq2bWTGFX5ODpM1vCo1FI/l4vN2lcpqiQrhyj5tO8wvriR3ekzAddY73zCj/pTxFvMIjUexAWuPPbib9ch0saqZ/jwSnfWcID/1mFNT44LfVXU18TgrbiUg3xPHLz2d+qcv6UHN5zuKUUnA7wxNFiM5J1mCJbSeYDa3A1DUO+/byaU2fBKv2IVUPbhunAkbgljvkXqrj4uuG5y8zILvibF+ZTcKVmvQSLGql+LAetLYEoOm46Z9CEUq54JV7WEDUlCM7qwHW5UP4sBHljD9vIMdM6Mbxo8o33vQX+1TywUs1ePv8P/buO76q+nzg+Od71h3Zg5CwRxAEFQVEwYFbUOsE92qtq9Zdba3WVbVatbVatXW1tmpra2tt9ad1i4oDQUGUKXtDyL73nvn9/XGDlQpWMOFmPO/XK6+LMQkPyck5z3m+z3m+JbgyTqL1aJ19bNC0R9PDOBOn7kHqKmOE57qwDtTLyBOFQnyZJFjim7tNw5N3QL+jod/BBum94V894Iya82msj2M5IVu43JkxhbvWhYTJr87qB4AvCVab8oOIRMzAB5wxr8G6DIUHlNPQEOQmudq4smeBVWJhWwY0eqRn1sIyFxKKPiNLOOGCgey3VzmHDS3c5NMb0hGFCYNnrh3C0CFLULsXS3LVmpRSEAak62Mkup+CMfVJXprQyAlXm3ywQ8guq2BmVa6jFKLdkQRLfHOfAhd/H+ouhc/WWCz1PL6z9njc9B54KTCNzXfEhhqr1CF8o4aLfzr083fLZIa2E4Qa2zJYnwnotsfrkAkp3KuchobtXLnSZP8+E8wCCydhQHNIenYjwcJmMA0K9izlkgurGb9fBaP65+F84dPTbnZshG1Bfiwb9I69ErBrMZkFzVgD8wnqpYrVarRhoqII390HNeAUxr9xP9NGmXwWy6bHSgN/BE7LaZhCtCeSYIlv5qcaZq6Ax2rBTBgMnB/xznjFATPPJJNOYpgBmzvOdPbD/VUZSBjccGYfAMJIY0p3e5uxTMW89RkG7/k65Fvk71FKQ72//VZ4Wv4eM6Ew4yZRWhMsaSa9oAk8DbuXcN3PB3LyUVVUl8c2aRL1A00QgWNB3FGb9FqFocY0FXddWs0l35mGvWMhsqFPK1JKEbkBmDaJbidQtv7vlM9cw3FNJqn5IWe8Ao++BjUfQdmuuY5WiHZBEiyx7W7VsGQZjHsB3CKY0d9ifrXHPlMnQv6+RA2A2nz1KgKrwMZ9vYazfzSIonj2UDSkQ7nVfTF3emdhM2P3fR165JEYnKCpwc/+j+3wbTdsMBM2gesTrvAIF9VDM7BrIZf9ZCiXntKHXiX2Jp8Thho/zFaqLFNhb+mM1RL/yRMquaTUIVjlYhYahBkZkNpqlGVBEOI1jsOvOo5kdB+Lp5pMfzqEmcA+UCrJlRAbSYIltt16IKVh8jEQOAZ9fxyQ/rWNMetUMnV5aO2jDPtLn6fBTCqClRlImvzg9H4AeKHGMeVq2Jq0/s9TdX//oI7jxr8JOxbg9ImRbmzjsQYKDAtM28R3Q6J1LtGiWmgKYYd8zr1yJ376nT50y9/0NBRFmkCDpcAwFPGvscynWv6R3ZIWB03qyctPLiNxQHfSKU+WCVuNoYjcCBU3KSg6hdS8f1K9eDm7XWtCWUgdcMERMMuHnfbOdbBC5JwkWGLbPKDhHODjK2FVDP58gcWsyz0KZh6Fsg8mMgC9+UtbBE7SJj15A6ed158dymMAWLI02KqiCIyWNbb7X17L9ya+CyOKMMrjeM1tkFwpUKZCKY0yIExDVOMSrUhnk6r+CSZdNIhfnTWAquL/Sqq0JtRgKYUy1Cb9Vl+HocBt2bfyhnMG8PKDS1ApD2WD3uKAELF1NCjbImr2SYVjsXsfQX35b6h6UTEspRjzpmZRf4iX5zpQIdoFSbDEtmkAzn8bfnst1CUMHuvvcfqyOH7sJDIbkmjPRzn2lwYqaTCSCm919snBs1umtru+JiaPDraaL34/r/vrUm4860MYW45RpIjcVkiuNq47KjAshTIMTEK8VISucaHGhYyGXnEOOasfv/5uNYMqNk2btN5YqVIYSn3jwbJWy9lsVHU++WNLaJqfJrZLEW6NVLFaj6GI3Ox6L+Y52Kue56PKJSzLN7llx5DFY7PDR9/RMEZ+n0XXJgmW2Hp3aBgNXL5X9gg693mTQ9ZFpM2DULGj0EYEytzstEoFsbhF+p21HDmpN/v0zwP0lntrxFZLeZpky9ix8367iN9e8RGM645KKiL3GwyG/MKTf0ZCYZkWZuiTbopgbYqw3stur9MrybhTK/n5qf0Z3T+xyZeIIk0Qgm0plFKtOo7DUArf1TgxxdWn9Oaqi2diDC2U5KpVaTBsm6jeI8jbjUT1EfSquJexv9PkA0/Ng0efg4m5jlOI3JPLmth6ecDVr0Dow775Bt0m+Hw6K4GdPJl0jUOU8lBxZ3PVKxVXZGo8cAzO+E4/ANIeJLYwh1RsneZMRF48uy446bY5PHXLXDiwAmWB3paG7y8mVXGF5VjYYUhzQ4C3MgX1abAsuvXPZ+djevDDo3pxyNCCTb7Axl13bENhGAqnjcZwKAW65Yx2wLhK6D6X9KoUZvcEYaOMbGg9BgS+gekA3kWsmvEvHtltKbsfbDBKZRdkh8qEdyEkwRJb5xcaCjRMPhBWAt9+zeCDdyLKk/vgNh4POsg+SL/56lXcNkjPrWfPg7tz7LBCdKiJfbkNXmyDpkxEfktytd81n/DGPfMxDq5AGwrtbmVy9YW9/+yEjUVIutbHm9uEV+NB0mDg4GJ2ObU3ZxxYyVHDvzD8U2vSrsYwFLalcLZjYmMpRRRqRveMccQRPXj2yWU4PROkJblqRRpsxyKzziNetgN5FceQ2OVXnIfm9lLQNbkOUIh2QRIssXUqgAf+Dbe6kClWnLV/wOQpCZz8M8jUmXjNHnbcQn85wVK2IlPnQxhxVkv1KhVq8kyZLPpNNX8hudr50o+Y9fulxCZU4UXR10+uPt+mRuEU25howg0u7rwm3LVpSNoM2bWYcedVMn5MGUd/MalC0+RqbAWWpUjEc/MzNQxodjV5puLIIyt59ollhHU+Rswg8qWq0mq0Ass00ZHG9X9A+p2/cd665dTWKNSNGn0tTNMwUirTouuSBEtsnRXAj8dCbR68OMXgtTdDiitHk2k4CR34mI69ueQKIGYZZJY00m9sGd/dvZQg0CRkbPs3lg7158uCld9+nzX/XEPehO40e1F236GvusZtTKossEssTMuARje7Tc2SNCRM+o4p5aQLB7Hf2DIO3WT5L7thtKHANhX5sfbxs7St7D/47LHl3LJbEYuXpnGGFuBlZJmw9WgwHBOvxifesxeJhtM45sifUVKjeOFazcgFMK0610EKkVOSYImtM6QRxj8DZWPgF/uE/Pn/Yuiqc8FSeBvASqrNLQ8qS5FpCqAx4JJzBgDZuVdJS+5wv4kg1CRaZoc5E9/Bf2sD8UO70+yFW06u/mubGituoBpdMrMbYWEzmIqCMWVcfskgDtu/OyN6JzbJSzxXEyqwTUg6Bu1tNqxtKFKuJhlT7H9IFb+7fTbKz8v2oUkRq/VoDWbCJGrUhOFlPDX3j+jBy1mDYlp19jv9Qw23tbMDRIjtpH3ccoqO4S4NMxrgmk/hW5bBq0DxDiMJm04iag6wEpvvvQIMy4B6pUojAAAgAElEQVQVaWK7FnPxvt3wfU2irbqdu4go0lgtyZU6cDL+e7UkD+pGJh1sPrlqeZeRMHHKHEwHwkWNuM+tJPPKBih3uOGuXVgw+1AanhnLdaf3Y/eW5MoPNK6nCSON7SgSjsIyVbtLriDb7L4xrotP6AGFNu4GHyVjQFqfMgy8xginvBwrfQHHrIZKFNXrodKDhs+ym8EL0QVJBUt8PfdoWDgX7hsMmVuBWyNG/MFk0OiLwQK/ecvVKwWhG8CaNDfdvgsAfqSx2+PVuYOIomwTOYAa/Qps8IiPKyPVHHxp02YFKBusuI2X8dHLmvAWpyEVwfAirrplZy49sTfd8jY9HYShxodsX5WpUB3obBG3FRkvYnh5jB33KWf2q+uwyovwaOPp9V2OBithEKwDO3EuVbH7+GfNMl5aZaLWhjTb8GGuYxQiNzrQKVPklLUGSjbA7R/DhUtM3D4h/VeOJFx7PGF9hJXY/NwrQDmgl7owuJAfHFhBFGjiUr36RgxD0RRGFOzyEmiFNbqITHOY/RG07P6oTFC2SeiH6FUu3qIN2Q2VhxRw3lVDueWsfpQkNv05bJxTZVkt29R00BxYKYhaDsfvndCTC59biZcJUIaBjqSi0soUvheRV1rCqmVXcKd5ESMXKIbNyw4k7VkHwzT8pIMeTEJsI0mwxP+2SMNnO8D58za+R3P0G2AXXYmyIRNpLGVsKcHSGLAwxZ2PjgbAjyAmR95W++K+ggvqPAbt9ioUGZhD8wnSYLRsU2Ma4KVBr3NheTq7XFidz7k/Gcpt3+5LUcz8r6/7n4nqqg3nVG1vMcsANN/ft4LL+xXgrfVQPeOydU5bsGIKtwbMolPoW3APC4+Zz7LVFvWVAQW1ILvniC6ok5xKRZvqB/ztRbhrPfxghskDRJT1Gk3E0aTWghXbYnJlxECvTEOfOJeNrwA0jvTCbDX/C8nVOwuaGDTsJaiIY40oAW1imRBlIsLlLt60OphZBzGT4y8ZxPLZh6LfGMdvzhvweXKlI40f6ZakTWEb2X6qzvSTMc3sEFuAg4+uglVpLLUNw1bF16EIowjLKKW59krcycBKg38ruOJH8GEz3CCVQ9G1SB1BfLX3NLAe7l8Duh+ohYr9/waFA35EzDGz2+J8RaJumjC7idv/sDsAYQQy9mrreP5/ktKnp9dy7HHvwLACCnslaVieye771+CCYWL3zefgib2447Te7FgR3+TrhJEmDMG2s5WqrjDfdeOh9swlg7DuXoDXrFFxhZZWrNZnWgp3HcSrjiav8F5W9P+II9fbVCV8xs2CKWW5jlCI7UoSLPHVRgO3l8PfyuEETH48OmBp6Z5k3ENbqldbrAcYjiJalYaqOD84rDL7Pmls3yqZUBNvSa7+MLWWMya+C5UxaI5oeGUt5Bv0HFDEiFP78JNje7B737zPP1e3bFOjI4jZCtNQXS65jTkKP9DYliK5TzmpD+swhuYRSoLVFhTaCgnccpR3MQOe+jbJpMGMw+C9P0HB0FzHJ8R2JQmW2LL3W0r6V6psA9C5/zSZsSRk2N5XYFlJsLZcvQqzDxd5HzZyx+MjAYjQkmBthTDUxFvGMFz32BJuPG0KFOdBpcOQKoeRJ/XhrEO7sf+g/wz/1FqT9rOrYDFbETPp8sM1o5ZD7ukrduDQAycTDS4g+6ilaHVKKYIGSFQdxuqd92IxbzNonsP8X3pUA+qcXEcoxHYjCZbYsoHAsKVwlIbRn1mcfqTHmgV7EUYH0LQCzC1Xr8y4wluWhh4Olx/eI/tO3cmafNpQpMFsSa4qz57Gmodms+vEgRwwsRfjdyrm4GFfmKius9vUWEZ2inlSNs7ehN0yzuKQnYqgXwF6jYvR3ZGtc9qEMkAHpBsqsONnU67epnQDnPeY4t3TNSPOhukP5jpIIbYLSbDE5n2oYRXwSR8AxYC1JjOeCyje+2K0UYwRC9lSbSQEq9gifGktP//dKCC7TGV0seWpb6IlJ+CCBz4jGUW8Pfdoxu6Q/4WP0KTcbEXQtvh8H0LxZYbK7hrgmIozv9OX39/4CWbvbkReKAl/W9CRgjTk5R9OuOhANnR7hfV5Dk9EHkcC6kGyD8XIN190bnJWFptXBNz1MZw7Hw6ZYjE0cKkcMQ6ncD+8RlB682dHDWaewl2ahqoYVxzTc+O7xVYKdcT3xvdg4cO7tyRXmoynSXvZWVWJmEHcyfZWia9mtixN/+7c/qAVfmMoZ7+2oiwTFXqEteXEyk/jyt3AWhLx6GSDIX+Hw/+V6wiF2C7kFCO+bLqGecCDO8OBgxTxTxX225ApPptMbTdMM8guBWxGBFbShmm13Hz9Ttn3aS3Vq21gKoNhfRJEkSblacKWZvXPt6nJdYAdyBeb+3sdVQVzG3DyTWSwexvR2iTSEDOP4baXDqXo6ID5vSzmHAfPHbHxg3IaohBtTZYIxaZmaXjXhReehd/FoanEwjzEw3LHYdsHkm5gi81UG6tXi5uhV5xLJmarV6EGU7KBbRJpQCmSTq4j6fhcH2I2vHT1juz4+DLCrx4wIr4JZZnojEdoFlIy4GReXPw66/dzGZEy+C4R5cA/gU9lqVB0XnJ6EZsaAPSMwc3HwV5jFcXVmnoPjNTpZNZUogM/uwnLZkTgJG34qJ6rLt6BpKmye+bJk4PbzFD/6ccS34zTcjs5pFcChhcRLmzCybOkitVmlAlhRNh0ImOc/dhjCuywweChlXAr8Gmu4xOibUmCJf5jpYakguvvgpN/Ai9Nt1g3LaBs/jiM2GFgtOx7sxkhmAUW6cXNUBnn7BN6Ay2trJIgiHZAqezoC4BbLxoEc5ox5eGAtqNsEy8V4PsOybIzSK3M4+WTAiamDW4gm2TJKqHoxOTsIv7DBN7W8KdL4IizFDvvEzFmDNBrEm5TJWHKQ1mbr14pcBwFnzRywVl96V9koSONkuxKtCMbj8cfTuoJSZNwnYuKK7nQtwkNlmlBGOA3ncROg8dyyD0wp7di1N/gR0BhrmMUou1IgiWypvwNKoC9FAyYCHMaTd7/OOSjT/bCCCehNFtsbA/BzLNIr0hBmc23T+kHgKdleUu0L1/M98ef0RdvRh3xfFvmjrYZ28BrilAOaON7rPg4n+KTQy44RvEQ0ACS3YrOShIskVU1G362Ct7cAJc/rPjOziHrRinydjyOMKrAa3JR1uYfijDJ7pU3u4kTJ/ViZGWMKNSfD3gUor1QCryWnqtbzu4PjSFhJkTJ4z5tRIMVt4maPHzvaCp324vhv4C8VYqzZPCw6NwkwRIw7W1QDXBVD9inBFa8bXDTh5rquaNw15yBIsI0rS09OWjEFelVLhTYnHV6PwDcUKpXon2yWs56O/fPwxxTgjenAadAmt3bjqHwXQPTgih9BZ/MTFK1LEJpxXvXZB9KliqW6IQkwRIwYBrcMAF+8DLsEij+dHjERzeYJBKTiPxSvFofLHOzJ0EFMcOARY2MG1/JQQPz8AJNzJbsSrRPCvADjQXcdW41LEllq61yyLYRDZZjka730c6BVPbZnxH94fi3FXvcBEWyPis6J0mwBEythkf2hzt+Azu8qRg5UzPhnmGk1p8Dbohh21u6+ihHka71QWkuO7cfAEEk1SvRfinVUjQBDtu/G1QmaFqWwsxTUsVqMwqMwAAFfuYaXvZiPLl3NrOq33gZkiqW6FwkwRIwehooDeqv8NcDIpb/xcT0TwW7CK8hxLCMLZ38YoYBS5sZtH93jhxSiOtHxKV6Jdo5q+UOYEChxSmTesP8ZhxHGrHajgblmKRrQ8yiPamqOZLzNFz4L5P9psAFj+c6QCFanSRYXd3sl2CmDYuPhl/faTD0Q9j1nGrSG76HToeYtsUWth1UliLT5EMq4KYLBgHZyeNSvRLtnaHA9bI3DUcdXgVKE9R6GHE5eNuUhSJIQ1B3NQdg8XCR5o0xcO8pLR/wu5yGJ0RrkgSrS3sN/roGbhsHtcWwIdR8uivoVWdjJ/Oyj1dvuXplWBqWZEjsUcbxwzdWr+SQEh3DxicHJ40upu+IEvwlKeyY7E/YppRl4NZpCnoO57HXTufo9RFX11v8xMsOHh3VDBtez3WUQrQKqYl3aXdDrx0heBUWDzaYe3jEXlMGUOqci9+gs0MCN08pCF0NNS6/v3IUAJFWMrVddBi2oWh2I/JiBsce15NfXjkLM9TZs6K0A7Udy4CgDsL4Zex+7GNc9nyIet8g+jSCAVCyKtcRCtEqpNzQZf0D9N9h/iVw7cNw93DFukLoYV1EflE+fjqCLTdTKQdYloZdizh+RDFBoKX3SnQoCrBa7gi+O6EKesRIrUxhJqTZvW1Z2WXCgpIhvP3KeZwcDzlvgsXBP4VJF4K6KbttlxAdnCRYXdZDoG6Dn/0IrPsMXi0Oia/ti7bPJL0GLHOLS4MAEQYsTfOXn+4IQKhkz0HR8diWwvM1Q8scDhhXAat8LIzstlGi7ZhEuPUmuups3FgBi8OAo94yufVNePUh+f6LTkESrC5JA8+C/iHoh+HoiSb7rYEg8wPM/CKCIAJri+mSEVOwJAVDCpg0sgzQOKZkV6LjMQxo2f+Zo4/sAVGI1xigtnz4i1ZhKgIPbGsoUfh9SEW8dbTFwG/DAW9kt+2aIlUs0bFJgtVVxV7KjmUY8JjJPyp8qqv6ES86AXcNWP9jrc8yYE4jf7tzOABhJDMaRcdlWwCaC8eVUzqoAL3axbBzHVVnpxRmFNJca2B3P5HSZCWrBrlcs9LkqT/CvUB1rmMU4puRBKvLabkrXHoQ6EnQ/xiTM9+DOv8HOHY3wkBvcbGvZVucaHEzDC7k2N1LADBkLoPowCxD0exmfy/2P6ISalxUoGXJu81ZBqYOCb1dSCXPpvRJmDzH4jjg+wq6AR9KFUt0XJJgdUVjgAOB8etN9izwWG9WY1YcSfM6ML/i1j0CZRvwcRN/+dXwje+S6pXo8KyWJcFHL6iGpElQF4Ese7cxpYg8jdsAsYLjMMz+BOtcjpxtcW8IV6+EnXIdoxDbThKsLqXlbnDKOJgFxBotPn0b4GLwe2MQfVX1yswzCRc2weAkk/Ys3eRLCtGROYbCDzR5QL+x5bCmGcOQ02ObU5aJoQK8DcPRpadR4oA5y2CiATf3yI7MuF5OMqJjkjNIV3PRU3DytXDBixY9lrlY6SEUlB5GuoHsfjlbEIEVM2BmE0/8Ytfsu2TPQdFJKJXdQxPgZ+cNgDqf0A+lPNvmlEK72UbOeNHxJCqGUFLtMWGNSTWwkwtln+U6SCG2iSRYXUVFS+5090T404Ewr8xgeQqigrPxGgZgRCFbOh5CsAoU7mfNMDifk/Yp335xC7GdxGyF1poTRxRDnwSs8z6f9i7aSssehdrzyNQMQyWOJx1B3+cV5y1XXP0JZNbDHVLFEh2PnD66BA17fAj7vgeBBWurLNbYHoExDLPkcFI1oCO+6tl027EJZqzl4b+MBiCMNKaUr0QnYihwQ4iZ8J0zB/LItZ9g9E5kK1miDSlFEBioCAzjdJrDp6ga9inPuSaTdwnRAZz0CvxKw8VyzhEdh8UZcmfQ6RlNMG1HuGI32K9eUbdK0a0GCvJOxq8bDGGAMjc/2i8Ep8AivaAJhuRx8oQqQFZOROekWo7sh7/bj0d++ilhUyDN7m1Og+VY6LRLaAykpGQSL6y6gf1mai7PKHYyNc/tCq+EcLIGGaEhOgiL2tpcxyDamhlCWTn88GlYlW+Sr3xMfyecymPJbAAdbLl6ZWZ7r7wP6/n5wyOJA36gMQyIJDcXnYxl/Kc62218JeveWENsRClus/RjtS0FUWRiaMgE57B7+V8wh83m3UUGv39fs9f3INoATfJDEB2HhVMnmxJ0BeWNMHeYos4w6dUUkNHH4tYOQQceaguzGUJwiixSsxtgWCHnn9gLyG4vIkSn1XJ4T752R3bceSVuiCRXbU6DEbMIG1wMowdG1SkMP/ca8i8xKB1rYC3VWLJUKzoWi3ijHLVdgaGheDCo6QFN9dXEBpxMmIKoycjufbOZcpQJlgZvtctjj44in+xHybVGdG7ZI3xIzwQc0g1WpbG7O/hejsPq9DRgW0RRRFR/AZPvepSauvnsuRMs+wAMJ9cBCrFVLLyYjHLrEpQis0QRGY2oyjPwGgYTuR6GY3/VMKtMcwAD87nhz8t5+J+rWFHr/q99oIXo8CKt6VeRoERH1MYMwijXEXURyjIJ632sWDGq4SIK63/LovmaqMDAkLOO6FgssJ7OdRBiu1CgNPFSE7+xkjDD17kljAAKTOZPr2V+QyCDPUSXMUcDVQ4UOkRBrqPpKjSouE1UH0H8fGLdDgcrxJAMV3Q8Fn6tbKnZpSjQvs6uGRqbXxrcDGdAAjMmj++ILiTSZDIB2pPCyfalQGOAHxE19ieU77/omKzsc8ii6zAA00CprVrn81IamqQJRXQx8ghQjijQkSJoDlrq6EJ0OBYqJsNGu5RtvBtUyMVGCLH9KKXAsuSxGtFRWdKtLIQQov2Sa5TomKRlWQghhBCilUmCJYQQQgjRyiyk/trVSEODEKIzkWuYaJcslJJJ7l2BbnlTkQIl7epCiI4ve/3SssWEaI8sMOQpwq5Amdl6ZeABhMgzgUKIDk0Dppm9X5Q6gWh/LGKJR3MdhGhrBkSK7EwZcxSK4ehMALYk10KIjkVrjTJAoYiil8FeRNyKo8xIVgtFe2Lxzm/PzHUQog0pBV4I5hzocwYM2HcUmfTThGYvwsYAFZdRHUKIDkIBXohZZGHHl6Pty9CLPuaNu8EYCJYLSp7dEu2DReUEqWJ0agagwDlSUb9aEXX/AL3hZgzrfiI3gkhnszAhhGjvNGBEEICypmMmVvPEIQbHfWaxaG6E5SMPx4v2wqLwIFm87tQisBKwfDXEUiaPPwW7rf4dg489kCg+kbDJRdmxXEcphBD/mwZlKaIA3PoPKPl4HaPft1lTEpCcoIk1yzM8ot2weDku60NdQhUce2FA9RkOJYNc/NpbiZfuTjrqS5QKUI4sFQoh2jcdRhgxi1hRCtedzso9YFhKM/GmiMPvBPJyHaEQn5NaapexHMbdAwtGefRSDone0zD0XTj5gGWgI8muhBDtXQSGIlY0m/LB8+gdQU0SfnkbDMt1aEJsysg2Dcpb534DxhfDxREUAovGhDz+HUWDfTeKf2HGDFQgS8VCiPZNodEu+NEsHkrMZ8hjBjuVRvzwY/jT259/kLzJW3t4kwb3LkHBvhqeL4SfPwoZK2S3X9osW+1jRteT1283Ghb3QgURypKqphCi/dFao2wDMwnuuqlMXA7/XmrxYtLjllwHJ8SXycW0q/ixAtUAPzwGeq0EY43PICNGsng62v0VyUqIUKBlqVAI0Q6FEYZp4hQuxcr/CKMMeg3R3FgLV2jQv851gEJsQhKsrsYGzjoXHhkHvxntUeNYvLDHHZjGSzj5Cu1JgiWEaH+UqdEZCGo+o3/1LP6SgFIjonEB1MwHLsh1hEJsQhKsLkXBk+uyfzz/XfjWPM0uNZqiJeA1XUaibB06bqCliiWEaE+0hkih8iAKP2LuzHqOXGXzUDLi9lHwyCBknJ9obyTB6mqOrci+LusJzTYs6BYyfJmN5c2ief3NxPIg9KPcBimEEF+g0eCYxEsaMJPvU+yCWaPwXU1Jc66jE2KzJMHqkhScWAyv9oe/D4R/7OBj1VoMG3kPuP8mXm4SpMPskxBCCJFjSmuUB2HTSvJ6f8Cq3aEiGXGNB3d4uY5OiM2SBKurOrUw+zqo5e5v1+aQB4nIK74UO16LXQja15JkCSFyTmvABLd5HjOeXIA/xWJ5/5DZpVBXgpynRHskCVZXV+VBHHhvB42DQUXP2Wh1DXaeSYQv092FELmlNcowcLqFGMkp9D4IUiUGzx6reVTB5bmOT4jNkwSrS1NwWDGkFfzlcliO5vY8qAl+h5F5lliBQ5D2pXlUCJE7CpRW+EENRv475IUwslhz9N/hNLkBFO2XJFhd3VUKlAb1HIDmjukG3a00rL8ay6jBKbOIXOnHEkLkSKDRBjTXrOLege/ypwcNFlaFPAP8KdexCbFlkmCJrBF1sPNKeCxP8/hAg0TfmWjnepSpUEYIslehECIHQiBWAPGC9zhjqscpx5k8T4QGApCbP9FeSYIl4BfAtBI452M44jPNye/AK3Nh3bw/EDeexipwCAI/12EKIbocjakMdCJDQdFkqorA7asYVwcj10puJdo1SbAEXNayTHjhodBtLeS7EUcWWvQqbSCz9hYsZzV2gYP2glyHKoToUjRocFc3EOdNanaAgwj5ZTH8rSLXsQnxlWSzZ7Gpi8/Y+KeQwQtsyjZ8QJl5O451J9pq2atQut6FENuBDsHKA5jF4jlLKVlmct4+XxiELKci0X5JgiVabDxRaTjjAwgTmqAh5E/TYUivB9h90H6k4t/KPlVo2jkNVQjRNSgNdqEmDF4l1g2GDzDYlZCewLdzHZwQX00SLPFlq3uA2Qhh94h993MYuayJ1Jqbcap2JwwrwQ3AkmNHCNGGNIQY+A0eqtdrVPWGf4YalYICDeTlOkAhvpJcJMV/UXB6HZzSA7QCpT2OaYjTvO49kpV3Eyu4hUzaRMlSoRCiDekwwo4b4C9jed0HPNUd1IgQaoAkMCfXEQrxlaTJXXzZKcXZ18Ee9AL6pz32rLJY+Ic70eolzBKFjmRDaCFE24nQOMVglb7O4N4ee2PChxq9BExJrkT7JxUssWWDV0GdD+9URqwtNum5u0em5iqS3UaSaSwFHYGSJF0I0frMSBE2Q7z8VdZNgTEjFNV/he+uyM7GEqKdk4uj2AIFJxbCmwPhLw/CgsN84kNipKNpmIV3UNgXfFeWCIUQbUBrVNwgdJvRtW9SHcJL9SHvToQFPXMdnBBfiyRYYstOKcm+jrsV1EcwZpXLgWUmT/S4Fdt6g0SFIvBlqVAI0YoUBF6EWQDxkvdZ9uZK7jkUZvTXzFHwRq7jE+LrkQRL/G/DVkPchyeGw43D4Pxlmqb0RaCasWMGBLKNjhCilWjAyJ5TrLzXyK8KOQ6TAcAYOdWIjkMSLPE/KNinL6RPgHPXwp/eDyn2TJLhTGJN15FXBH4kHRFCiFYSaWzHIL0BvOAV1pXBefdpXr0fHnsi18EJ8bVJk7v4365UcKXmC1OTI/bWsOzJuxk78HAS5fuTWedjx2203GEKIbaVgiCISOabYC2gYc6nmIPg4MM0pFo+5pScRijE1yUVLLGVNHC45i0MdhjkEyYuJQybsJMWkRvJ1hVCiG9E6QjTgXhyMmtKUrwzEC5t1pw4M9eRCbFVJMESX9PGxOnPwHPwf1dGHPCO4tJhM0j512IXKDD8bAImhBDbQoNpKDK1oHkd/32Pgx83+PcLMHbnXAcnxFaRBEtspROz+z0P/zncVq84+34wlz4I/BurMEbgulLEEkJsEx1EqISBSjYTBu8zeAS8PEHzSTe4KNfBCbF1JMESW0mBuhN6AidcHZE636I50USQvh7FBuy8GJEXylKhEGLrKAjDEDNpYBZNYVXDWnYw4PTlULoDnJXr+ITYOpJgiW0wCIruhddmwMHnhFSlTPqNfBfCn2EkQFkhOpK1QiHEVtBgOZqoEZqa3uatUXUMHKQICuAnGkbkOj4hto48RSi2wZEwC8gHVj6gue4t+OWNcMiI31A66EDc+HjCZg9sJ9eRCiE6CB1FGKYBEYTNUxj3lMbZxSTTP2SFDTvmOkAhto5UsMQ2UNBbQbWCa4CXfhtyySUOqrCJdMPPcApWY8QddCDzsYQQX4MCghAz3yJeOpv88DO6D4PmJs13n4DXJ8Bvch2jEFtHEiyx7U56BuYeA0Ur4K4in4q4g2VPJqq9DycPMEDLYCwhxP+iQRkanYHIfp8Be6/mr1Nh/56a6WfAuc/nOkAhtpokWGLbXXQkfPI0PPcq/GOBptfykL/tCrX1t6Ps1zBjJiqUKpYQ4n/QOntDFoLb+A5LHksxcheTt7pr7gYeyHV8Qmw9SbDEtttBgVKws4KPB8LaUSEXLnbAytCw8jqcwnVgWmgtG0ILIbZMhxEq7mCV1mCpGRQcBv1cmF4C5YmW8XryZLLoWKTJXXxzd5wJP/j85Odx/rIYcxa8iVpzP8nSa8lsUJjWJnvtCCHEF4QYmFjxGajyJTTPB1UN42vBQc4cokOSCpb45r7/s+zrlZPgzG5g/din9BOL/fa9Ce1NwclXaFd6sYQQm6PBgigFYd10Ppy4iiH1BruqiB8CN+Y6PCG2jVSwxDcXr8q+zvwQai6ARGNEqlox+7mA3olLKe7+ImGiCB1qlJJ7USHEf2itUZaJWRjh+1PZ+V6Yrkye1T7XbPwgOW2IjkcqWKL1jBoH718HT90BUw8NGRWzca33ydTfSawQQlca3oUQ/yWMMAwTKzEHKzaHRheGFWhuK4NbpfAtOi5JsETruenhbNP77i3N78mDA/pYJv3H3k6QmkKym0WQDpEilhBiI4Um8CBTP5vThs7l+TsMFldFPFIPz9TlOjohtpksEYrWN2Qg5A+B1VpTt1izbGiGuHsRBcnJ2AUOkS9LhUKIluVBQ2EnQDOV+6a47HOYw5NjfXiP7CUqyHWUQmwTqWCJ1rfPQTDrWbjwj/D6KREX/NigW79pEN2InWeB6+U6RCFEexBGqJhFonQNjj2dXgmo3B0uflfzuIZeklyJjksSLNH6rvltdonwwLLsf/99HPxhGmRSvyEMXyNWESNI+7JUKEQXp0wNLniNi4nv/DEzd4MKO0I/Bx9/CstzHaAQ206WCEXbObAfzF0M954Y8dnvTVKj6rFXXkXSehW7MI6fDrFss2WKoBCiywkVKgFu6mOSf19NWanNk7sGrD9cbv9FhyeHsGg7+w6H65fAVQ9BPBNxck+DPju8h0r+FCNmYEUhyJB3IbomHaEsE6skg5P/LutHQfd8xdQfa9aeA3ckpvsAACAASURBVKFUuEXHJhUs0XauewZ4Bu7UsOYDzSMzDZa8BH28h+i98wF4RQfjNnhYtpPrUIUQORAAydgq8qqn0gOY201z5H0QB6Y+gMy/Eh2ZJFiibZ26G1zecpLUOmSvT2wK+q8n3XQz8bzRRIkiokyAsuRYFKJLCTWWBWQW8aCayffuszhmRMiuU6CqDvrekOsAhfhGZIlQtK1DTs2+nj0GxisY8kpAtyk2btUbkLwLK95yk6qlEUuILkNrQkMRKwM/eJfz6mHt8Qbn7Rmx52XQ90akeiU6OqkaiLZ1+uXZ14VrILMB1pRoNBH/VnDQS3dT3GMfVOIAooyPMu3cBiuE2D4UWBgoVYsVn8L6eiisgElroawb/EaSK9HxSQVLbB97HQlvlcLN18BR/w7Zd26M9eYGMmtvwi6ozSZXgWylI0SXoDVhCJm1aynoP4X51Yr4spC+9dA317EJ0TqkgiW2jxvvghs17PQRLHoFPnvX5ayj42SWv0bM/y1O6Y9wVyuURpYGhOjkdAR2ERjBh2z4qJben9jcV+3nOiwhWpMkWGL76hsH+3I4BWjCY2CpybrpN1M8aBxm0RjCphBlmrkOUwjRhkJtkJfvEUVv4GQgBVTUQZkHsytyHZ0QrUISLLEdKRi1Eq7/PdyWADeMmFEcg2QTYeMPiZc8Tyqdl214lzHvQnROWmMaiuY1zfTcZTJBPuy1WnO2CWVFsG+u4xOidUiCJbavG3rADRp4G/ReoHA5Z6bDRx+8SY9hdxMvvYqm1WDJaCwhOqUg1MQSiiiaz4w/forRx+S1w0NcoD9Ii4DoLKTJXeTG0QkobIbqxfDALj5XfUdRu/p6/PQ0YiUK7UvDuxCdkQXESsAqfJ0+e0PPPQ2mofkAmJzr4IRoPVLBEjmgYOxKuOcz+PMyyMzU/CNlQpGH7X+fIPkmyjYg0GDJ7awQnYuBVx9gF71Kw3oYXK25DJDWK9HJSIIlcuPKHnClBhbDG0dCEyG9MViz9F3Wrr2FeNm1NK3ysZDZWEJ0GoFGxRR+Zj3xke9wWTUchFSrRackCZbIrW8VwjjIPkaEhnvgpFNvI9M0gVjp7rg1PlbcBhn0LkSHF+iIvGITHb6FXdPAEScZ5FdHOB9D3puwTArWovOQHiyRQwom9sr+cdKLQJ3m8uEmK+tTrONSMpGPnVRoN5LGVyE6AQsIPbCKXmXDAjj1RYNT74Nz34RluQ5OiNYlCZbIrTMGZV+fLgDdA347MeSUfRVvjnyblHsTdp4FlicVLCE6OI0G0ySsDaDhNfyVcDgR3wKOA7mJEp2NJFiiHVCwS1/gRXhkIdzzhkHsZgj9X0PwNlZ+HO27uY5SCPFN+BFmEZhlH7F20UK8UXAMmsOBUbmOTYjWJwmWaB+mV0NVA9xxI3w8LuT0oTbu4g1EmeuBJoyEg/ZCucsVoiNSQKRRBljxV9m1j88edQZlCzVnT811cEK0CWlyF+3H0L7g3Q/H1sH0bwVUWyYmL+NNuxMVuw7lB6ANJMsSooOJAEsRNEA87zXmzdHMnqgYAqwbkOvghGgTkmCJdkLBAcvh6ufgrz3hnYxmNoq3FsOhw+7BrjgAz9uHKOWhbBnzLkRHEoQhTsLEjK3Gcz+keAIs2FOz4L1cRyZEm5ElQtF+XNML1Klw/BL4xQSYOiFg0q4OTWtryNTeSqyoFhV3ZMq7EB2JAjMMsfPArpiM16ueMefBfsdn//fA3EYnRFuRBEu0PwcNgLI14C+Dx0f6VOxv4+X/H7r+IcwEqBjZDaGFEO2fBmUpvDowMpN56+QMy640OP4yzZhR8Fmu4xOibcgSoWhnFBy8BH69Cv61Amq0Zl1M88JymFh9C1b+OCJzNNoPwJTjV4h2L4hQMQNFRKb+bQ66Gn5fAr3vhPVTkZZK0VlJBUu0Pz/sC0N2hStMqDoC8g4K+P4Yh9TCOtIrrideVp9NrnSU61CFEF9FgQ5D7DwTq+h9dHoFC1bDISnNpZfDI7mOT4i2IxUA0X6NKIGLIXuHO8Tje1aMGUuex6z5HU7RJbg1oOQQFqL90hCamiADTuEUqvasZXadojGE+30ol61GReclVyfRTim4eAGcAVz0e1gDKNuncrhJhX8ta/T+mAXDCRsilC2VWCHapUhj2QrVDGH6LT77KODU/zNZdkzIec/AwGr4e65jFKJtSIIl2q8zqgENc3aE9XvAqg0RqVKLZX9opLTP5RT2eJYo7WQ/SBo5hGhfFARBSKzAxilcilszm/K+cPtQqD0K1NG5DlCINiV3/qKdUzB6OExTcOtnMPXRgB33t6lpfgW/7l6sQoMgCHIdpRBiM0wVQQAqMZWyHqtZvwJOuEQzfi4cX5fr6IRoU5JgifbvpgQoDSeuBVUOFc8HmPkGfQbdRJCeQazEJnBlGx0h2pUIDBv8DATuu7z6WB01pkkqpSlzYFBRrgMUok3JEqHoOHauhER/mP+Jpn6EYtmCOkLvYqz4K9h5EAURSm4ahGgXdBii4jZOMoWXmc7Y02FenmJWieZDGWMnOj+5GIkOQsEB/eCPj8Ppi2B2XsSllQa1DW+g1G0YSRMyUsUSol1QoKMIZSjIn0GttZAKAypSmto6GLIg1wEK0eYkwRIdx+XlMPpCOHYCMB1+9jKMGAF4D6AyKzGLbQLZRkeI3NNgGBrfhXVrZvDGzothgcGIYs1jRfBsda4DFKLNSYIlOp7ZG+D8ArAP1Ox5M6xevYFYwXuYCTAjqWIJkWs6isAxcRIQ899n9zfgjWKTe+IRewN7gPyeis5OEizRwSh4sQh6rYOiGmjaRXHKYU00N8wg3ADKIDu1QQiRO1GEaZnESxZhOrNQHvQu1fw4Ac8BNbmOT4i2J03uouO5uBKohP3RXNNosMfzEVafadk7Yl9BqMGQ22MhckWZmigDbu1sKkbP4XngpA806z6D6SEwPtcRCtHmJMESHVBL7vQacPDdiqJjwV2zECt/NW5TJaEfokxTKllC5ILWoBXEwQ0/pObpRnbMs9lwSMDaXMcmxPYjCZbomL6vwQMUmg3/BL3zepT6GMOtJIxCwMx1iEJ0SRqNciwSJfUEqWl0q4ZSE15wNQUeNBYg/VeiK5AeLNExFQDup7B+qUb/RnFc/xqa62YRNJG9b5DqlRA5oYhQAfjuYvJ7zSDVFwrjmovq4UYv19EJsd3IXb7omK7eDfq8DUkD6nY0eWl5SFxVoqyjMYjQ2kApuU0WYnvTKgIMouB15v/8IYwSi/yRITvmwcAkPCG/lqJrkCVC0TFNOAo4Kvvng2sUahWY6XmYeTVEzWWQDsGSGwghtiutUaZJrCQkaHqPqgtgTTeDF1SAkqqy6FpkiVB0XMc0wcT10LtWU+pDWLISKzknO6ohiqTPQ4jtTKMhUmhW4eS9T89SGBxo9m+G0+fmOjohtitJsETH9V0HDk2CU6Y59kbF+OqVZNbMw08DjpY+LCG2MxVqoggy65czZsgH/N+zBvV9QtYlYd7gXEcnxHYlS4Sig1Jws4alDvRIaebfauK85WOZM7FioH2F1hqkD0uI7UQTGop4IUTR+7z+nsceOzk8pfxcByZELkiCJTquKcAG4JByjbkcSvMhZczBsRtwGwrRboiSPiwhtg8NpjKwCppwEm+RVwJ1JpytNWVkm9uX5jpGIbYfWSIUHdtpy6FoLZT2gKJqSJQuhsQilAmyRijEdqQ0hJBasYHyyincH4chdRHd/wEliyS5El2OVLBEx/atRqgNoH5IxK2O4nG9mD+/uxC84RimJFhCbDchGHmg/VnMeHsFJ35mc115AEfnOjAhckISLNGBKTgvAGqg3NZMmGvx9GsZrMQnkDyGyFPZbTukD0uI7UDhlIZE6ddJpqF7HG5B0x04K9ehCbH9SYIlOraYBS6wHk3BNAV9gGAWSqXwa5NEQYSSeQ1CtC2tCbUiszpFos9kegyFRU2ahS5UKMDJdYBCbHeSYImOzQVO0NAIhGj89aC9BeRnVhCoQUgflhBtT4dgxyC9YRnXjJnKbScaTOoTUbQIeoXw8NO5jlCI7U4SLNHx/RhYPg9eqIwY2U0xS89l3tvLiaJBmIYkWEK0tQhNXpnCsCZz9+SIpt9bnJYIch2WELkkCZbo+J56DVYtg9q9I6Z8aGP9o4nu3eZgx/cnyigwpA9LiLZkYuA1RcQKX6OhGAanIG8y9NwH7pZfPdE1SYIlOr6f7p991UpzmAZDgRXMwC7ycNfa2YGj0oclRNvQGuUovNp6rCGTCWrh+dKI4n0gluvYhMgdmYMlOofxKRiswajRlHWDWMUnKGMd2lTShSVEGwo8jVkAdv5Ueluree57irkq4j4FT+Q6OCFyRypYonP4SRLWev/P3n3H2VVW+x//PLudMr1lkkklpBEgoUPoCCJNig1BURAEKyqWnwXlqlwr917F7rWiV8WGiEIgQIBUJr1X0tsk09spe+9n/f6YxKtepGZyZs6s9+vF6wyvnDmzdjLnnO9Zz9rPhrmO5diLDU+tXkPrM/txzEiM7oelVP8wAILrgjf8CVq2wkn3OZiymHEFLk2pAtOApYqAgWsE2gOYaCzP/sonXtDGMH8jjn8iNmNAr5ij1OEXCl7CoWcvlIyczZYl8I3rhFqgEmgodH1KFY4uEarisP9eOAXI+EKZB+NS4JctIVkREzsHNxxVSh1WkVj8EoNftgG3bTU1AZwbClM5GK509FENXdrBUkXidjh+O4z0IBgGNbXQ2bqCnuYOPKoRowFLqcPKgLEWL+kSlM1myeM5vn2r4TaEpTFUu3B7oWtUqnC0g6WKx3HA9ByMK4u510BJ9QqyTe2IRfcbVepwE3Adh952EGc2dfWWBx4yLPsFRM/Apwpdn1KFpR0sVSQMfHAZ0Av4lms3erT/tQm3YRMmHk/cKxhP1yuUOlwksjgpB8frItrbyMiR8N1T/u6TjD7d1NCmHSxVPCpPBM4CxghOiUM4GRIli0lUCFZ/1ZU6fAzEcYxTajBVc9lVc4Cz2uGDGwTRYKUUaMBSxaQd+IzAey1UNgiSASdYCnEGT3/XlTp8BFwPbCd0Zp9h/qQeWs9wWFEJV+tyvFKgAUsVm9U5WLcM1j9tef/xkK9ZQvfeHsRBzyRU6jCRg7u3mxDctrmc+SvY2AslPTAO+F6hC1Sq8HQGSxWXB3cDIVBr2fGYS8XK7Yw8cwuOX0ec0TkspV41A4QRbpmPX7kKyW2h5mJY3AZvmw+3/BhG/nuhi1Sq4DRgqeJy7Hh44GjoQvjOZsOuBvDiZ/FLT8fuLnR1ShUHQZAQTHoBY45p49403L1H6LkefpQrdHVKDQgasFRxWQPcHEKLBw17DWMiyKYWE+ViIhz9jVfq1bKCY4AIomguex7OcFLOYZljmQuU+4UuUKkBQWewVPH5qQc/Bm4bFrMtgmRtI5nmPJ5jINI5LKVeDRtHmLRHUNqKb1dROh1Kv2X4g4EmA5sMukWDUtrBUkXHwIRDGcoKHAtXfHIjwVu3QjSVOCPoq79Sr4AIYoQ451M+HKh6mvXzdmKWwHFfFI7+EPiAb+A7ha5VqcLTgKWKz3uAPwBJX4hih1HvsrSYRhyZSq5b8PTCz0q9dCKIjbF4BClDsraDnu7f4Vf+Oy3dLVyAw0+NLXSVSg00ukSois/3gRv2wiU74dJ9Ds1ZCJxGohD0JEKlXjqJYkQsJuGRqoox3pME7pXs2vturqnaRvJSw9IRGq6Ueh7awVJFyED1PnC3QeRbDrQBRzeSbwbHd/v2wzKatJR6XgbEWsjHOGkfx4cgtZxc+/fonPEzunJ5ykoSvNuP6J4Vw/vB6Mq7Uv9MA5YqTnfWA/UAwtW7obphPS1d27F2rO6HpdTzMYAVomyEV+LieD7J2p3kMr9CvO+QTexkzGKPrhKf303NcWYbbD8A4/S8EaWejy4RquJ1DADCA6Ng9pYMiWGNBKUQS1zgypQaWAwguZhY8gTlPkFliFf+S/K8BW/NJ7EVO3FNwPmnxJyYDjECXQkYu6HQlSs1YGnAUsXrlnVw7zq4SVyq32hxKxYjIXjW6HKGUtC3HChCmMvjlrgE6QR+yRwC7zrqj7oRp2shnaN8Rg/z+MtJeUbOEnZuBjEw/5uw9h19j6HPJ6X+D10iVEXKQKPAbiCBpeIuaGtqJGqGZNIgVuewlIozEV4AXk2A5+4gmfw6ezb/jvopTXz7Xrj9ep+HJ0ecRt864N4ZULoO1gsco08fpV6IBixVvO6vAVqBC+FN34Ke1nWY0v14ZhiZjMXTOSw1RElksU5MUO0jjoWS/yQ+8EP2bNlAthKqejw+c5ulsyykx0Dy4PfdUNZ3e0/BKldq0NAlQlW8jmvtu73qMlhowDZ1kShdglsGJo51WUMNPVaIshY36RBU+lgex5oLuOfoj+FmN7DmTJfqtMu6xRGTfcumFsDAjwB0mF2pl0MDlipeq4GjPwHH3SHUTHAYf2WWdLCEsLdvhkSpoUOQ2GIjQ9loB+NtxU29gxH7LsPpeobxCKO6XHpqYkbGMU+MgBaBR+rgQWA+6AcSpV4eDViquG3+KiyeBV+3sPZ7llzXIsIe8AL6LqWjVDETQeKYMGfwKx0SNR0Y+RLZ0pPhwC/YVRFyRrPDFcB/XBmTBy7eBhPGwMyt8JEWuMrAcA1XSr1cOoOlipsBEufCkhY4+xxwutbjl3ZiwzJsaDHodXNUcZIoxuBgUi7llXkc81fywefxD6ygsg2mXOTwuazw0J7/3Yk9BVw9C655C2wGHtVgpdQrpR0sVdxmLoRv/xLesVXYORLEbcUrX0aQNti8zmGp4iNRDHGEuC5+tcFNPotteSdb9rwBya5Aynx+9RpDu7WQFG7aAOccgDv3w2NfgHU3oVsvKPXqaQdLFbf7zoCWk6BqLyyvMlx2WicbNqwgzJ6Ho80rVSwOXd4mijBugJcGv3wTYed9HHfSN1i2ppvepM+MsZbPPhty/CSoOfitP72073aOgX8HuKtAx6BUcdGApYrb5E5oXQb5KuH6/3GZ3ZVn2BlLkQw4nu6HpQY5AwhE2RAvcHDKAtxEJya6nzj9n1Rm1/OFPzi8ZWLA55aFbKkSUhGsAtw8EKCdKqX6hwYsVdzuKgfO6/v6pHKY0gm5eC1eZS9xJonN6nUJ1eBkDNgwxkYxQUWAMZCo/AudO79N/XmPsiwDo8Mk094YcnZjnt+lYXQJtJwHB4B0AKX6q69Uf9EZLFX8jhU4MYJpWWFYB4jfhClbjUk6oPthqcFIhLA3xEkagqqAVO1ySLyLngM3UDbiUfwNPlNjjwfHZbFtMTXbYdto2LEB7mqGYUbDlVL9TDtYqvh9YDHstdBaBt84Bz5AM00b1yK9p2Fc3apBDSIGJBRMEJGo8/ESbUj+XvK9P8fPbmXfTKi/wSfeEDEjFozA8W1w/SPwtjfDswcfQynV7zRgqSJn4BcCHcBJCOfMdNm4tJey81cgEeDTtx+WzmGpQaAvXBnctI9Xej/Jki9TUb+C3UtgX4XLGTfCf44NeccKaC47eFHmO2HdLWiwUurI0iVCVfzmG1hj4BdG8HYa6i8CI2vwyvLgekisXSw18InEmITBr2nG1LyTqjuuY1jdCr5l4NhpLoslpnJsDEBlCpYAdwmcdTdMPauwtSs1BGkHSxW/44D/J7APWPmcsGcplNTtpLRsI9J9HGFvCMbRa62pAc1gMeISOU9yyqhfcKcIH3rS4w6JeI6Y3Pj/bVLde0nf7UPatVKqULSDpYrfauB+4E+tsKdU+NibIXneXqJ4E3GGvqeBhis1kIlgXIPjg3Q8y4pG4cJlAb88NmJ5Dh7ogVEurD10f90oVKlC0w6WGhq+/TNoXQ1zZwh/WO2xobKDcaevgeiavkF30TksNXBJbHECj6ByF2HnIno8mFoh3F7fd3mbi5fDjtOhHfi1/horNRBowFJDw7gbD30lXH6CYUIP2PwqnHRMlPGQSDD6kV8NVK4Q5sBtX8+xJy/jC3WG9+21PAjUApyunw+UGmA0YKmh42N5iFzI5ITtrVBatgWvYis2P4E4F4GnS+ZqABLBiCFIQ763kRUrurnooYBfe3naDt1Hw5VSA42+oaihI9EBPc3Q5gs150P5lG2EnduxOUD3w1IDlCDEjkuyaj+J4XMZORzccuiaA2VPFLo6pdS/oB0sNUQYOEGgFdiRtmx82GPdmmbGnr0Bw4UYo3PuamAyseA6kGvZTvqUhYw9y2DmxbwBGA5cVegClVLPRwOWGjreDH0XYasTLq93mNoAWWdl33xLu4cgGB1kUQOJCOIY/BKwucXkF7Qx66sBDSZkMVBV6PqUUv+KBiw1tJyThN48lNQKTidYbwNBeg9R70gkE4PnFrpEpf6B8RyC8k5C/ymcFHTm4VIRzgFO088DSg1UGrDU0PK29dAawY60INMhmd9I87o9SHYkRrOVGmiMQGjo2tPEqHOewjGGN0kMS2DxcYUuTin1AjRgqSHEwN0CPcDJxIRzPeIVe6g7bQsmOBWJdApLDSwSg1cB9CxhY+N+nA0+9xORPRmGFbo4pdQL0bMI1dCyy0CbgceNkG51GXcNuKnlJEogFhcRDVlqoBCMcUiU5HBKH6M8gKRjuHa38JGtsLXQ5SmlXoh2sNQQI3ArfWcTOhkhtxXi1CoSfjNeZy1WLLqpkBowLPTsbafshCc4qxQ2L4xJhlAWAUcVujil1AvQgKWGGAOxQL4FpNfyhqkwt2cNnRtbsLZWd8NWA0csuBUGMkvp/dMO/lrm8der4kJXpZR6aXSqVw09vxoLJz8Add3wu/kuf/pJK+OPuxLHOxrEgtGlczUAWAiqBMf7LtGYZzk66XJaU8xVm+GJsWijVamBTTtYaug55qZDX1nevt3jsovB7VmK676W3naDawR991IFJQCGfEs3dSfNJNwO2ZMtAZArcGlKqZdEA5Yamm7NQrsHiRDa28AvW44bdOF2lIGI5itVUBJZvCoHJ1zJrAc3sO0pA9/9u+VB/f1UaqDTgKWGpilZaA5hn2+Zdip0NS9nz5YuYinDdbSDpQro4JxgKgCnZCZveQ2sPdplzfyI+k5YeEmhC1RKvQQasNQQZCASiIDqXMzqRpc/s55ro13EfgMSoflKFY4Fz3HId1i8kQ+zbg20n2cpQ38tlRpEdJhXDU2fAL62Ce55TIhqHG6qAqd8KW4pSKxvY6pwoijGLQcnsYrs/tVcfwDmftuyIoT5d6MpS6nBQQOWGrquqIcZF0MqDXSBJBbjp/O6VYMqHANYwU+CP2ImR3Xl+cLrHdzbYHg7mDsLXaBS6iXSJUI1dF29qe+6hAcC4cBJ0LtjCbkdWZISFLo0NVRZwUs4tO2BVPgIj22F75wHE4Cwru9WKTUoaMBSQ5SBWw5eFWcSMVt/4ZC/YSXnbN9HKlmOZAU8bWWpI8hAlLekqlziYBOyaznn3ggXGr18k1KDkC4RqiHM9P230Qgn7HO4dLOlqnwxXjlE2EJXp4YgQ4znQ0n1LFY6PWzFcP4C4Rrp2z1EKTVoaAdLDW03CuwH0hjSqyGuWEQcXYfRSWJ1pIngBg49e6FsxKOM2hxxfqnDU9OE47bBn8YVukCl1MugHSw1tF0CXCZwbJNltwHsIrJNMY5eLkcdYVFocUo8gspd0L6UhqnwtBFmXQaTxsE1mvmVGkz0TUQNbcF94H8Ghn1f6BkPkbeCfGY/fgAS6ZqMOkIMeBLjAEHVkyTTrfz2AphSBf/+PdinK9ZKDTa6RKiGtje849BXls/80XD/qG6Oq1mCk2yA/Ra9ILo6IgRwDfkecBJPsHtpLxfsddh6tGUnMEI/Cys12GjAUuqy1bCxDlZPcrm0OqIl00gUvp6DV9xVqn8ZkFyMW+HjJQ6Q71iCOQ52DodNY3RfUaUGKf1YpNStx8G/1cC5xwnL54JJNZI5APjavVJHRkyMsZBMz6Fk5B7adsMlGbihFT7QWujqlFKvgHaw1BBn4AGBDg8ES3kdZPYtx/PawanE5nQ/LNXPLHguRDkIu56heWEbe05yWVttmV0CyUShC1RKvQLawVLq58CfZsKD64U390Bnaxte5TKcEohiq2s0ql9JHGOSPkFlB2FuEaNOgpM8mFMrvG8D9F6P/g4qNfhowFIK4K2nA1Pgx1c4HH1RRFCy6ODTQ0/fUv3IgFgLxhCUNpI8+jmG1QINcLqBRdPA/KrQRSqlXgFdIlQK4LXb4aoV8JwHv18uHH9ZI2ELeJ5zcAttbSGofmAFxxVMHnJdC2j7VROTxeO822LOewDqumHMDYUuUin1CmjAUgoDNx86YbBduLYa4rbluOkcEgZIHn2qqH4hscVJ+gQVPeTChQy/DWY9bZhX83dnsL7jX3+/UmrA0iVCpYC/XZewciJMjqEtaMYrXY6bNkQSF7o6VaQMFoPBSayibMxaTAuMvarv2oM36C4hSg1mGrCUOkQEbj4gPHe8YfSoDEHpUowBY3XQXfUTD6Is9O5dwpq7tlO11GX03pjvAvcVujal1KuhAUupQy44ABtmQwJY8Nk8cc8S8u3gekb3HFWHnYjFeB4lI7KY5HyOvgk2HOcwqUH4TaGLU0q9WhqwlALg4/DU26GjHn76McNpN0K+azl+QjC+03eml1KHkcFiIoMxm0g2LGVnDYxJCat3w8p9sKPQBSqlXg2d3FUKgK/3LRH+ETAebB8OJdv3kq5dRS47DdsWQcIpSCdLohhcwRh9vhYVaxAD2c5VdN6zHi72WHK2pSeCo0phrC5LKzWYaQdLqUPOzcCX1kPlV4RZcyE5vQOndEXfHzqF6WBJLsJNuDgJDwkLUoLqD9LXGfWGhTjOPJK3Qc0Mh2U/smwcCY+VFrpApdSrpAFLqUPuTMFHpkDtOvjmpQ5zr+0h7lyO7QBcjvieo1E+xC3zcEq3gf0hXnk7xuub3VGDmyBIZPCcnVSNms/YSVBnwaWewwAAIABJREFUhQs+Da/XeT+lioEuOSh1yMeAzUDZMcKmrQ7nfhp6e1bgJkGsg8QWc4Q+lIS5mNQwH+wm4uBawrW9lJ98JtmuSuiNIdAPR4OZiQQCiLo38ZufLuf4iz3sxJjGDPipQlenlDoM9EVaqUNWAb0nw6oboWqfsGUM2Ggnfvkm3KQH0RHYDyuyRDmoGu9SNuph0uZCSg4sY9wFO8m0rEe6wPj9X4bqRyLEgUOySsA8w3XXQclIh9UNFpKQ+zO6LYhSg58GLKX+3pmL4LKfgZkAb+6F6ukH8MvWIHHfsk5/vvFJGEPsUDYBUsO/wc8qryBeupOtI5Ps39hLbJdikmDEHLx8jxq0IoObPkDNsbPxR0BpjXA2cGUM5spCF6eUOgw0YCn1965fCFc+DSP2Cxufdpk7rY3ujlXYHnAC+uksQiGOIpyUS6K+l0z2/XRlPsLFTwo/eYehY21MeS143goSla1I4CGxzmENWrHgeWDZyg/8BfQu8LhuXsxX74ZvfabQxSmlDhOdwVLqbwx88G8BSniNNZz2W+g2K/FLwGZdLIIxh7GNJZY4siQqPVxvC3H0Hmw4i8992uHY7wrvR5gyXchXQrVZS++erRBVg6sdrMEqdqCkGsQ+zbuaYWvgcG159L93+FrhalNKHTbawVLqn1Ud/K/WEYI8eJmtBOXbMUkX4sM0h2VA8hEmgpLhHl5iNl0dl1KanUWi0ufY71rICp8Fzi+JaXvc48c3bSPfsgFiOJwZTx1JgotDlO3GtY8RZqDBFy7aB9drZlaqmGjAUuqffXw93LAGUgmoOh1GHrMbJ7UZLJjDNIclYR7H8SiZ4FA66Qf4bVeSdzfSW5mA4SGjAHwYJ/DB3ULFZIc3fRGMswSvmr6zGXUOa9ARBONDd9NuThk/h54fGl7vR8yqh/8pdHFKqcNJA5ZS/8BA5xQIj4VUg2X1Hx2+nd6HzawnytG3H9arzDWSy+EmA9yqDDb1//ix8x78Gd0EJPhdTY63PASvWw10wTsNvHUqJEcKcRmY4ctIpPaA6/QN3atBxUaQroZkw5M8vSZP060uS13h9YUuTCl1uGnAUuqffeV6+N5r4Ps3Cr0NLu9oAptbSVAKWAd5FZ2jOJfHq0ngpHdD/m2UVX+NtVsNz/7G54yuHFIDXxwOpg6ohFMfhsl/ASdniUYYho9aRvfu3djcwW6aGlRcHPI9McnUTKIQJvcYdi4Hfx3sLnRxSqnDSQOWUv/sqF8Ds0F+C1UhtAuEiY34Vftwki68kjP4IiHMRaRHBHjBfPK9V5BzH6ATj3etdJj81pDPXQTm8zDShdPqAQObxsO8YbCrw9K52mfVQ+3E4eqDm5/qINagIoLxIOzeRztPcfsJ8OeSmAXDoG0yjNJ/TqWKiQYspf7ZVuAygWOaIT5FOMuDERO34fvbiSy83DVCiSxgKBvt4Tj3kTnwetzy5dSnfXavipHSmHEcHFxvhpklcOvBN9tvToFZp8PD7xYCD9INkKhcSKI2i+PrHNagElmCWvArnqIq18kKHA6827L1EXhKX4qVKjb6rFbq+Xx5Edz7BzhtieXAF1y+a7aR69mCE4Jx5SVnrChvcZIOXiW4ic9x4Ee3UO61cv4kj598NCRvhXKn7zI9AHwbmP6Pj3FJDs59HOqSwoSxUDV1MUZa+zaWNxqwBosIQ9wLfuUjNO2HTgxXPQIfvrnQlSml+oHug6XU85l+KnAy0Gm5sj7gxjtiejtX4qauI8o7YAXzIqcThllLss7B2A6c8DYq6u9ny9tg4XEu//O6iLV3whdqwJbDh17gcRYE0APMGBuzcaXL4ulLuX7nLjzTgETo03gwiAQ/6SDZToLsE5zYDfdYS1Y/4ypVrPTZrdTzEQMLHZhTAjWOsLsJItYSVLXiuC9yKqG1hDlLqs7B81dj5SKk8n4aA4cpnYZPLY+RWfCTBjg5BVOHw+//VVYz0GkgNjDXWEbsdbklA5J7lkQVxHrRuoHPQBTHBGUQ1D1F47wm/vMKyDqCx8HfJP1nVKrY6EdfpZ6PETjnAIR5qHOEadNhQ8sGbNs+JKrmXwUskQib9ygbBV7VQ3RuvAVv5H7yf/GoiCIy3XDLnZAEUhPhOl7acPOHBFqAOA+dG8Ek5uP4t+CZ1MHtGvQdesA6mKCiHJRVPUxDjXC6del2Ysq6wZQWukClVD/QDpZS/8p9dfBfI+H8asvyb7g81LCRpt07+jYcfZ7ZJwlDXM8jVQ9ZvsmmX76Z0O7n+HEef/5gxBMfhlPP6rvv24Ev8tLPHBvXDuOfhtpFMdcfB6V18+lt6uibcdcxrIEtsvhpB/J5wvYnCSbCFe8TPv0G+NQthS5OKdVPtIOl1PMycNSh4FJhOeeUgPPnxFRWrcILLiHqcvraXI4BK8S5CL/cxy9pxzqfYuP877P2I4aTtnlcT8Rk4HJgXDO883vw8/e9vHI+UgmcB2CZ/4SLNO1g7OT14A4n7hCMrx2sAclAFFvSZR7GncOett1c58ObHhLYc/A+9xe0QqVU/9CApdQLqX4YulJQUQ3Dy6AjvxI31U2+pxRHBIktkotJjvDxg7Vkmz+MjWYxbkbAGY0xwfCIuS3wWYE7gJveDLWvMAuNAVoRhk811DdAlzMHxzmP7k59Jg9kriNEvRCXPsbHz+jlWRxkt8XcDXy20NUppfqJLhEq9UI+fxp8agqMqBEOjABK1hB1teAKSBxhLCRqfJJVjxBGV5PPzKK3IklPQ0iqLsZNwc0tsBf4OK88XAF8aD18ZBWM7zDECUgn5xJ3hRhx0HXCgUls3zYdYQRR25N88a/QZsFMBLmz0NUppfqRBiyl/iUDK2ph/QjIj4nZ9y2XS8euoqdtH2EG3KSDX+2QrPsOHWtvoGfEJlYlkjyWzTKuR6jOQYkH10zqe6xXNYduYP4U+NV4mDsq5ufjIY4Wku9qxkug+WogMkA+xi91SdYuwOndxpgq+OkBmLBJT0tQqshpwFLqhfxoIvw2CT8fLpSc5nD/7Ihk6XLKJoCTiHCDD/HUFz5ECy3sfyhg+8QspcD2JiirgPoq+NNheif9A7B5Miwts4DDsI5OgqpG3HKQvCasAUfAOELUCeSeZPiFrYzf6vCZ/cJbF8MD2UIXqJTqRzq5odQLqdwMbQKC8K5dht4uMN4GJLeXKLyVoPYvzPiBoXONyz0X5jEGpj0GiSTMmA7vOcxtitJdfZuOTu9wOBBY/PJniLNX/21PJTWAiMVJOCBge55i3wOWpZNcwsmWphyMSBa6QKVUP9IOllIvpJ2+pRxnGSwaFTFyEqQnPIRpeQ2pcX/huvWG9iWGbF3MDIApsPIP8FjF4Q9XAGuAFVn4Soll6zaw7tNkdgqe/yKbn6ojy4CEMU7aw6tZQdi7iZ7xUOML1z4AjV+CFYWuUSnVn/Qzr1IvRu4ENgA/sZg74NYzN5OYBN+vNQRpyA+zjB528GLNAOuBH/RDIQbGCX27lCJcbaC1czWev5lEMJEwI3iuTvYMCAeXB203OO4zTDp/N+dgeGyHkLkWfnRtoQtUSvUzDVhKvRhzd9+tvx/4b/ghUJp1uGCPJZuGrjLo7oXbBH7Qz/lGgP/3Fzi5RJiFwwPH5LkgfobKxERsjwXP0UbWQBAJJnDAg1znXDb+OeKxWo/M8RGbC12bUupI0CVCpV6qD1SB/AnkSehOWmY3wPh2+NY8uGVZ/4cr6FuuXHkF3HsBrL/ccMqPobZqDrl2iI3RcDUQGBBinKSHX7WBRGIN02phYo2wLw31WZh+8H5KqaKlHSylXtTBN8L/Evivq//xj75yHnzlCJfzrXdCewIOBMI3bgDZNR/pDvFLPGxeMJ6+cxeUAGKxGcBr5KSTnuNT2w23lwk3uFDpwpcLXaNSqr9pwFLqJRsIucXAxENfe8K73ws7WndTXr+Y2JlB2BTh+Z52sgpJBMdzMAHkMvN5alaW6b0ev8xFtC6i7x/wtkIXqZTqZ7pEqNRgNH4RSCh0Hesw3svhpeZhIvA0WRWcxBZJeCRqtmFKlzFiAiRdw0NvAe6BKg1XSg0FGrCUGoy+fAocdxPkgXXPxdhoLmEX4Bmwha5uiHMtZCDev5r6Y9ZwwU8MJ1xh+XU33CXQVuj6lFJHgi4RKjUYXXsMsB42jIZ3vgua21bilzVjczXEmRjjuYUucUgSEYzj4LmQb11I01+6ua86YOS9IdV7YNj4QleolDpCNGApNRhNqoH6djD/LQzbAOvHtFCXfBbXu5y4Owbf1TmsQogtJnDxa/ch7kIqAmgthWnnC3cAzkCY41NKHQm6RKjUYPTXuXBxB1zwMdi5w2HuMZ10dS8kbgUT6HYNhWI8QXoh3LeZCacuYcn3DFNPi3l8Lly1pdDVKaWOIO1gKTUYTQQYDmc8KrSf63Dm01CZXIBJAJFBrPzd1vLqyBDEGLw05MNGNj3SzoTrfA6sC/noSDjjKCgrdIlKqSNFO1hKDUZiwAtg4etgjCucbSBwt5Ko2IiT8ojCeGBsKzGUiOAYl0RdG6V1cyg7A8rHGsZ68Ns2+G6u0AUqpY4gDVhKDUZG4IpmuGo3lDqQHwb+tAMYfwkSg+NYXSYsAMlBrnUnDRPnc181NCRiSnpgmAvliUJXp5Q6gnSJUKnB6hu10Aw82iQE3Q7zvt7FuIsbiTLX4fiACNrGOoIsOKVg80tZ/Oh+rl4T8KURIYw4+Of6T6HUUKIBS6lBycC4Qx2qemFGu8vIN1ikdzlBZRabDbChBaPbNRwRIuA4JKu66ex9EqmCil64fbFQ0QNfPK/QBSqljjANWEoNZm+Z33fqfyottFdCGG8nWbYSsachvSEmods1HClxBLm2ZszUp3g6BefttZSWQ6UuDSo1FGnAUmowO+lM2BNBe4cgjxkuvG4XTy9dRZg5DeOIhqsjxQpBpcGGywn+upMZlR4LL4r+9891eVCpoUaH3JUatAyMBkZ6EJUL/jSX2Q+ExAeW4APGdxDRhHUkxBj8kjzJilmUnwhVRxmqW2HijkJXppQqEO1gKTWYve3grRwjnPYAjG2A2K4mWbuPTMdw4t4Y9LI5/evgyQRRZxfVk2fxaAzvLheuA2qr4bJC16eUKgQNWEoNdu9qhcs3w7EHBJMF3OfI9m5EwuH0XflZA1Z/kkgIygzGWcmuxk3U/dplyeaYJVlIAywodIVKqQLQgKXUYPfXfdDVBqfUC1sXeZQt2cO0N6wGzsXoCmG/i8WQqhQ8dyblddDySYe3jo/pBm7R2SulhiqdwVJqUDPQdCz0ToBnyizH9DiceCvk7RK8Cgueh4gtdJVFTPBcQ+/ukLLKmWzcB9eOt2xrg+pCl6aUKiTtYCk12N0DrBQIATJC0ANRxWo8u424ezxx1upTvZ9EsZAuN1hW8dCVK5n+FbgjG2M0XSk11GkHS6nB7mPA9D0weRbUtFikzlA1Zi2ZPduIcmBcXSfsL561eClIpB7hrJ/A+BkuH0zCh+Xg7LtSaqjSj7VKFYOPNgANMCJjGb/FJ1jWTaW3Ai/xGmzGAAJGB4IOP5euJqga9widTZBYDSaA7iw0TSt0bUqpAtKApVSxqI2gNxCGZ6DUQm9qMV5pF137y3Aii9HdLg+v0OJWOLh2A7m9y0icBv9h/nfe7fsFLE0pVXC6RKhUsbgduDGCkuFC2clQfvxyrDTh5sHolu6Hl4HYxngJSFbPZGeY5Z04jKsUPt1R6OKUUgOABiylioKB7ieg6wFwdsU0/cDjj2Yt+ewWfZr3Bwu4Dtk2iGUm6T3CT4EPtwHlBa5NKTUQ6BKhUsXia5cc+spySavH1a+Hjo5FeNUXEzc7iKNzWIeLRDFBhQuyA3/vUmak4e5FwgPHcnB3UaXUEKcfbZUqJkcLVO2CsBJsKTgVjfhBG+JosDpsDMTWYjxIV83CDm/n7svh0Ug0XCmlDtEOllLF5A9A80iYT0xtBSySRlrnthJLFa7bd8089SpZ8AzYXggTsziwMc/seQ7fv1A3dFVK/Y0GLKWKyU3ATiDAMnm7T+m8fRizliB1NFEGjDatXzUbx3gVHq67n0znYkZMgLveA8/cANwLfKjQFSqlBgB9tVWqmCwD5vwCfvOAULfP4JSBWzaXVHWMEe1evWoGrI0xriFV/RQl45o4txk6viy87gC86fZCF6iUGiC0g6VUsXnfDdAMjMgJ4/PQ2TGfXEsPsZTjosuEr4oIXgKyLUD8BIt+181F73a48SjL6UAt8PsCl6iUGhA0YClVbH52DzRXwuajYp78uUPpfYvYt3Q/Xl05EqJP+1fBRhav1CcZtBNlFjH9SvjtVnj0KDhtF0wdVegKlVIDhL7SKlVUDIz92/9YrlntkZqTIzFqIZKaQOaA4GkH65UxYCTGc1y8qvlEshNvAaQvgLdkwY6EU4CfFbpOpdRAoDNYShWjuwXel4WjjzV0u+D5c3A9q+Hq1RAwPmQ7IOqZy44vNZPc5jKyVpi4Bk7cCx/Qv16lVB/tYClVjAxQmoAeLDUe+CVzadmTBdLoGNYrFMU4KQ+vvIeocyFTPg0tGw2/8fUyREqp/0MDllLF6DNvAxqBegtfMzB+Le9s3kCncyJxr8V42r1+WQwIFvBJlC1GqjexpRnOOl84ay/kk/ClqkIXqZQaQDRgKVWUfgUiYIxw6Zkux8yP2TtsDglOpLvH4up4wMtz8CpDUR7irkZW/nAXw25wWddj2TUcTih0fUqpgUZfZJUqVjevgbf/CE7eb9iQhsjMId8KLm6hSxt8xOIkPBKVWbK5hUx7B+Rdh21VwkrgF4WuTyk10GjAUqpY7ToWNtwMfwxjWrdAMjGPfLYbkzAQ6dzQyyGxRTAE6TWUjlzJ9BKoGi0cAMqjQlenlBqANGApVaweA242sHakMP8NsGXnfoKqRoJSQOJClzeoGBGwEGeXs/Tzm9m/1OM1juWBebBidqGrU0oNQDqDpVQx+58spEMY1eZyVxTzaPUz0PkaItFn/0slYjFJj0RlRJydz8nvgxUZhx/URsRAotAFKqUGIn2JVaqY3Z+ACmDVMOH9j8NRw+bQ0wRewvRNwet+DS+BYHHwSp8jMaaRkhjSWeFygQbgXv0rVEr9X7pEqFTRMtBgoMTAGUYYfzqku1cSlO3B8V2dw3qJjCO4ecjsW8eS9Grcxz3OKYl5L3BzoYtTSg1UGrCUKnavvQ++JsLvusGmu0nVz8MvBYljbWC9GBFi45IYZvFkDievhB2jHJozlvu6oKTQ9SmlBioNWEoVu/NugKf/BB+Y7vDLqVmSqXnk2gCXvl3dByM5UoULXmxw0nuonDKXRADpo4TnKmFfGsqPUBVKqUFHA5ZSxe5yoCOC8RYumQntWxYQ5cEJHGSQLhMaRwB7BH5Q34+xmc38sKyRbc+4dC2Nqfs9nLQUhmkHUCn1/HTIXalidyJwVh7ueA5OqYXazHbKaleCTKO3NcIbbK8DYhFz8MNhJOD1U8oRwTiQqoc4msNVe2DfepeFF+QxGqyUUi9MO1hKFbs/AmdfBh+NhEUnQ2ZkJ276WeI8uNYOsjmsuO86iuYhcDfgJA0S91MXzoCEDlG2FceZTVk3nDRVuP5x+GSuf36kUqpoaMBSqtjdAfxoM8x1BPNbl+CRDGF+ATYHuOaIrLQdFgLYGNeBpP9DfP8DJKtjotjQL8NkMRgXMm07mT5lDnvmuCypj1l3EawLDv+PU0oVFQ1YShW7bcOg5WFonQxndgsj3w6mZwVeSTdO4CHxIOlixRFOMiAobQazj1z4OPnu35AaDlG+HwKWCMEw8NLPsGFWRNOpDu/BcjnwYM/h/3FKqaKiAUuponc9XPhhGLMbJl4NiX2QL92LX7EUN23ADoKL6Rmwtm/7eb9sOYmSPVQfBYnURzGZbfhpBwkPbysuwsFGGdIjHyV5MpwwAX4GrAvR/RmUUi9GA5ZSRe8d8PY8vPYABO1C+huGD09qorNtMXE7GIeBv12DgOMLYTvE+eXcN2UP45yAzWuaEPNREhUQHc6Xs1Dwfci0NzGa2Xz/J4YnfxrzzGfgj184jD9HKVWsBtnZQ0qpl+9kuEmAWjinQ9hzq0fjYxHDyxcRp8CEBrHCgD41TgQHF6cMMr1LeOMqePTnwqkfdYg3/pGmlp9RVnMj3U0RXuIwvK65lqDaJYieYl9HLzOud0k1xAiwl4H9V6WUGhC0g6XUUPBuoDYLy0vhhEA4ug7C1Ab8ih04gd+3q/sAJnGMSbokqp8jym5kvIXUW4XvvBWunAStoz5J2LudoNQjyr36Heoj6xDnBC94hGwb1IYG2QSndoK54PAck1KqqGkHS6mh4GfA+3zoykOuFkaVgB/spHfXasJ4DCB9oWSgLhW6QpyDOLeBYcdvpTQBtXuFqR+2LJvtkDqxiXTiDqKuPxCGFqz7ikOWRILvGcLOFkonPMmuifCfxNTQt3N7zSeBpw7foSmlipJ2sJQaCkIDw3ZA1Uqo8Czrv+ex8P3NZJuXI1kwPgM3XNG34SdApnkF637SxpZHPaaWWFaeAV9vE17TBIvrH8Q1PyRR4SO57Cv+abFYgiooqX0K3zTzzNsdfvaocM1/QTXAJYfloJRSxU07WEoNFZ8Zf+gr4bXzDCe+FjLOUpxkRNzrIjkL3sD70CWR4CQ9EuUZwt5l1JwPTV2GC1sFtxza3iCYn7tcviCmteMrpL3X4JZPIN8V4if9l33ZQg+IshAMf5idD8MHfumwH8tRr4N9/XGASqliNPBeTJVS/acyhGQnJE4V6jyIZRNB6UaM6yADdcdR1wIGnK2EqfWUGkiPEL5XAuN2wklfB3lnTLrbo7Z0K5Uj7yKoBC99cGuHl0MEE7iEHRlyrU9SPhW67rGU3wv198EIHW5XSr002sFSaij5vQd7ymARlurfGcr+bSMrnt1IHE3F9QbmGqEBJA/dbZv4j9PXceMtLhPvsUxsg6OqIHcq/HoWNPRavrkXRky6nwt3X0C+4xbibBb85Ev+WXEUk6738Lxn2PPcLnKvgwVTB2jwVEoNZBqwlBpK7nsnbFgC7lmCf5FHMDOLl1pGMn01NurbrsEMpD0IRBBx8ErAhsv50KKI+pt93vvlkBmzD95nERgBH8tn9/ss2hDS1fN1kpVnk7NTsL0hJvBffMbMgCsQdUOi4RGe+mbE709w+CCW966Fz03t74NVShURXSJUaii57z5YuBr++gMhUQ/+OEiVLyNZ24bjehAPrG6NIDi+Q6qmlVTlUkpqwEyBmV+F2xqBBnj6TrjoLDjfwBfrQxI7EjhbNpLf/zW8RIhJeoh9CccVCibpEOUEt+sJ3vRx+KyBMoG5x/T7oSqliosGLKWGmmOAE3aAnCCMmwj+pLXYaEffFXPcQlf3jwwCeci176auYQUTR8LoSIiBFLDwXdB1DMyaB/8tsFhg4q6QYxyX8TN+isnfj+OZFw+OBmIbkaxwCKrn0b5rO881gN8pbAQeOwLHqpQqKrpEqNRQ8+gc2LcM5k+yrN3ssfrJ55h610aMmQ6xDKyQFQEpsNlNrJm9HRnlkzkxYhF9s1nfvOrg/d7Wd3OrwJZzLBMqfdY9FlNa+gUqR59Oz96J2EyM8f/FwQmII+R7Iah4jMoLu8nudTityfL5RrjmtP4/VKVUUdEOllJDzdhz4PTb4QeXWDoudpj2XbDuYoIqEMdFXu6+Bv1FhNhzSFRYnFQjo8dAKnBoNIIYsP80KvbfN8IvDTw+Ab5fG1Jbl8BlE7kdXydZFWI9l3+5Z0Mk+K5DlIOw+0maHhLm9cCOGg1XSqlXRAOWUkONXA6fBN4qUF4m2DZIppfiBk04xvQtyw0IgofBmBbcqsXIBKgbL7xd4ENC3xrh33nrJ+HcT8GcB2H15+DDC/JQ4iO7/5t894MEpSDh8xybASHCKfcIapeQs88xehhclhN+MxrKgNOPxOEqpYqJBiylhpq9X4B2IGOgZITl0Uaoql9KpnkvEha6un8kFnr27Kdi1GLC0wwVO2PGzYNxPUDmH+9bNgVmfhm2z4W7z4L/Sgv7t1r2vgXc4BMkS3fipJ3/26ETEBEkB4anGHZSM5kOQ3ctXLEPrmuHZ4/YESulioTOYCk11DScAtwP7AIz0XLh8QHrG1upqFiNLT2BuBfMQJjDsuCWgxOuZMuKDvI/9bl/UgiTXvjb3ngrvH3iodXAmBkzAzIjthLt/TcSDT+mZ7vgJv5ufVEsjueABel5ml2zI86d53LhcTFv+jYk0vDDz/bngSqlipAGLKWGouproZW+bRBK9kOFA93BQpLJN9ObTfSlk0LuhyUCjiFZliPMzuNoA9t7DInHoTQLLVf8629NTey7/UQFTOqEBeQ5T3zGX/0TWr91Gelhb6RnX4yXdkHAhhav2iNZtpZM8zrGTIMHxwqdD8K3a2DB9iNzyEqpoqIBS6mhqBX4dAjt68B4QvYEyG19llx7O57UF356wEAcGbr39xCPXkh2JIwX4SwDlcAHX8pjnA5fGg1LKmDTPTGnPgitf/oYsupMgorhxL2C8Q3GsdguyLnzOe7UXQzD0JOH5HuhGdi8GPhWvx6tUqr4aMBSaqja7cGy40FsTPhbl3VvWcKZj++iPlXft7xWyA3dBbwEtHbt5OmRSzj7vS7ry2PitTDtWOCrL/4Qt30OvnY2xMD3sHximkvQu4180yfw6n5BbPOI9TBBX5rMt81l9sNZRhuXkyfFfOzg45hT++sglVJFrNAfU5VShfJzYIWBla6lbbzD654Vqqoa8aro2w+rkGLBq4SKmoVctABW3G7Y+FXLcw/Bn15CuAKYcE7fKucJpu/20vWWqWlD6qJfQ/QbEiMCch1ZghKP1LAt2NQKkg3QPBkOHA0f798jVEoVNw1YSg1llWHfdfyOrjfU1UOyYh5ekCU2hX1tiDG4hJSWzWNyKRxfZTAPQ2Xby3+sS14Lw+sgsV34zW2GXGuvISN4AAAQTUlEQVSMRJ/Dze+hZJhPbzPEPUsZc/Im/u3LMH6skAB6gZ2H+8CUUkOFBiylhrIVHiwF3jU6pmMc1FbOo3tXD66BF786cn8RHN/QvSeDWzmXmRPhgwnL0stgRdXLf7T3fR727oebXwvJVsttjzrUT9iESX0SN+3jlkDYO5fn5vfw4St9Hrlc+KKB7xoYM4Cue62UGlR0BkupIcvAuL/9j+XqmS5y6jbc1Doc72xsJ5A48mVFoZCoMHiylpYDWzl6q+H/t3fnQXZWZR7Hv+d979ZLesnSiaRJ0tmaJQgJCDEasMoQtggqoxYKiGBpiWOVOlDWjDMyqAyiNYJlCTg4LDM4I8owM+WAIygjnY3OSkjSQBJCkk6nk+6k09u9fZf3fZ/540YZBonpTt/bleT3qeq6SSV1zzn/vPXr5zzvOZ98z8gvoZ65qPh5qUHPTnj0AvjZNyDx7M+46eUryGc/RPf6VvwUNJ8D1/7SiMfhNsb2RUoROaEpYImcyszgL4E6jO3bPA53hSRrWnDJ95NNj02nuzMjWQNBooWqBIyPfL6zMqAnA/dcOvIZtTt4FVhnETtmxKj5dYE96x4gaQWq5+/h0D6INUS0xyGOwpWIHBdtEYqcypyDNcB/dMPuesNlwaVWEPSFBNHYPB/M98gdhoqa5Xj98Pp8+Pf3wrpFIw9X1gFnXANY8Tvqbw/47WMQLn6R5MVfYv+ELurPgdTkkHhv8XocEZHjoAqWyKnuKWD3JDhMyLLNsGziarJ9h4hVNGA5w8XKV8qxwIgnHH6uh6rki+xogh/cHRLLQdMQ1N07su91U4/84e+BD8Jz88GFYBSA4v1AvUD91+G+uyAxCmsRkVOaKlgip7pa4OXXIMS4JnBsbuyloraVVC1EjLz3aSRCi0jUQfXMNTzQcJDNV8L8pLH6aqjNc/w7ln8BnAcLDC4NoL4XXMbhgAnA9Lvgyw5u1fagiBwfVbBETnUdwJMTILkHJi3wee/ygL6pLVj2QxBRDDXleKHQgcMggKjQwmVZuDzp8xlCAK7ygPuPfwyADUaxTJWA3y8uAnQrjoiMElWwRE51jQ52TYS2CJ7rN/r7IB5vIXsYiPmUrYgVAZ5HvhfS4XKSj8MqjIDir4LTLyrTPEREjp8qWCICmz4KTAN6I77wKKzcvpV41etEwSzCwegP18mUjAPLR8SrPbz4brzerZx/C9xxhcFmoGL0xxMRKSFVsEQEqId3fwmYbNx52HHg1SEqJi0nMQ4ii8oSSCIL8augYtIKGmYOcsd4uPKwQQfM2lH68UVERpEClogAX4LbZsHae+BrfR79ayKct4L8YfA9St+DZeDHIOgFxyoe+3iBB3s8nmmFb/TD6yUeXkRklGmLUESA+XDjkRBVWx2xZCmke1ZiFkHSg7xBKY9rCKy4DenDUPtqPvhd+FuK1/hcq0OpROTEowqWiBSZK/5MrYZZOQgG9hGvW0dinHek1byEYxPgV/nEa14Cv52Zg3B+u7HA4I2SjiwiUhIKWCJS5Kz4s6jdWL3EUXdBhnjlSsIAwshK14flit9vBYgnX6RizgA/WQTvGoIb+uGeEg0rIlJCClgi8qZnn4C946H5px5bHwyI+lZS6IFY0hUvLiyFyIglHYUByA6tYscPc9zyzz7xuUbToBoZROSEpEeXiBzhYOnVYJ8A90PjUw/BAJtI1B0mCuqIhgzibnQb3h2QN7zKGLGaAaL8Jpo+DL/6V2Ong/woDiUiUkaqYInIm8b/Z/GOvqteNJa1QU+6B1fTilflsLA0fVhGgFfl8GvWk04fYMEeaL4LCgbxcpwgLyIy+hSwRORNdwN3+xDrAHe1Y/nCw/Rn15Dvo3itzGgHHgPixeMZ8kPr+LNFB5k/zZHoNb4DPDrKw4mIlIm2CEXkTRfOhd2dsPlHxi82edy3JKJu3Iv4DvA8oshwbvS63c0M5zmIIOpbwyO/Cqlc5zNnYsjs26FpyqgNJSJSTgpYIvKm+duLn3YjND3smD0PUt07qBi3nXx6DlFvAMnY6FSyHFAISVTH8av3kB7YRl0z7OyF31wH7lZ0wqiInKi0RSgib3WxwbxeOPdm4/oXwM3qwuIvEYWAG+2bn4snbLnKzcRndzCzE+Z+wmg+CO9X/5WInLgUsETkrT4LXLsfXKexZdBn4P4+8tm1WA6cB4xWxorAxQ0bgKB7I7uuO4i33Ke+3fjkIfjcKA0jIjIGtEUoIm91w+9brC40rnjEMd6DKNiIV5OjkI5juQgXO/5fziyMcMkYseoIy2xk9p2w1xwP3ms0/KD4f2487lFERMaEKlgi8v/cBR8x+EwrVEwxevsh8HYRq95KLOYB4Sid6h7hJzwS418lim/Dz0BuCnz8bjjDKL7SKCJyYlLAEpG36lwCM4DTgdOrjbDX8dGzdpPp2Uw4dCRbjUZ/lG8U0pDvfY1pF+2kairMnBCxpAKuAQ58cBTGEBEZG9oiFJG3Ou0iIA10QHMhoqIxziNrCtQXNhClPo3LOswMjue4BjNc6PAroVDYyI6VGXoq4rQnAtr3AY3w3QtHaUEiIuWnCpaIvF28CpgLr50Np/XDNAOqt1BR34WXimHh8XW6W2i4VIzkhF68yk3UpqDOd7TPMGg+Mr6IyIlLFSwRebsC8BWDoW6I6o3uGFQWthHu2oHlG3B+BPgj/n7nRzjz8P1dTDqnDQ+oykV8bj9UTYZ7R+8sUxGRsaAKloj8cXWA1wWFdSH2RIxNt+0l27OVyIDoOBNQBFEBgux2/sHtYPfDPvZaRLy/OK6IyAlOFSwR+ePuADgbwFga9zj3/TDUvR5X/VnCXg+z6MjBWMNkhvM8/BqwcD03dEB/xueh2fnRXYCIyNhRwBKRdzZzFWQAv8pIeDBYuZlx8d0Mpmdg2RA3gkeIYRDzSFYfIPA2kExBEmPeEFREsFb9VyJy4lPAEpF39tQi6AaeJ2L6HY6X79xMx8p2Qmbgx0Z2VoNzBnlIH9jH5IWb2OTgIjPOASYarB3VFYiIjAkFLBF5Bw5uSsDePFSdGTHr7jgVvx3AS24illqMZbxin/tw27FCh5cCi15hz1NdNDyTYPnHCnQ9CfXNwGslWIuISHkpYInIO3spD9sNNmH8/CXIeRBnLYlxaYaCKqIwYlgvy5jhPEeivkCUbqX+dNhZB/t/YdQDW/T2oIicHBSwROTobgYOd8Np043mFPS6DRTauygETfjDDkRGgEc810O+bi25aqjNG82vw/hZ0FaC+YuIjAEd0yAiR/foM/Cjf4IlK0L6fx7jvyq2EPTvIubDsO/MccVdxYH9nVw9fT253/hc866Qe2fBD0swdxGRMaKAJSJHl/ZgTz0s2BNx+D0eV7YBrCFZByEe2DBCVgB+LcTHreeJdXlyTT63uIj5DqZqe1BETh7aIhSRo2uYAI9dDqkeqM1CRQz8eCsF149PDbhjD1jOeaSqsnixVfg5qD0drt0G4+fAQwpYInLyUAVLRI5uyoUwHsgmIHNaxE8mQ+3sVnIHeghDjn2X0AwDMp2DVJ6+ihnnwqFcRDhHTyIROemogiUif9oTNwGrwM4PWbYzxta1+6iNvUIiOYMgY7hj6Ha30PBTjjC/k/TfvUrmdJ+vtYe8Zwckp8KPS74KEZGyUcASkWOwD87dArPajb6JHrMHYCixAj+1lHzGHdO1zxFQNQGizAq8D0Mw29HzivHAbPjyV0u9ABGRslJhXkT+tI6/hgsK0AjMbzfSzeBXriR3MItvx/gcMY/CYAFXsYKMg8oqx78sgucboEMBS0ROLqpgicif1ngJzDfYOQWq/ZBJDzsWfqGVzl1dkGyCnEHsKNuEZvgxR25wgMzEVTw9G+pbI/DAnwyN55dvLSIiZaCAJSLHZiNgXwTWRjSu8undmCVR24qLN5HLRXCUjcIgMFL1DudtoHrwAInIo7AwLNfURUTKTVuEInLsLnoUpm2Fec4jkQRX24LzjSA6+rPEYcQqwa9aTiGEa8xjcQE+ZsAXyzJ1EZFyUsASkWN3Sz/8eQ7Os4gNVXAo30JvR55Y8uhvEfqez9B+MNfCoQE4a63x4bWw9A3g2vLMXUSkjLRFKCLHyMHn//CXCDMIaOPSA9upjM8jyrxDH1ZguAqHH3VSk1nPGd3wzWXRm/8+swxzFxEpL1WwRGR4phrE2wyHx02vGbUTW0jWg9kf76kKLSQ5DiobVvDblkG+uQzAmFLWWYuIlJUqWCIyPDcDmTOhD0ffXqie20Km61ZCz3v7E8WB4ShkIFG3gnlx4+pOn8p0SCIBd04bgwWIiJSeApaIDM+3/gboBiojPn8jHOxbTZjJEI9XEoWGc/9nmzCCWMKjkIagdzn90yCz2wgNamcBun9QRE5OClgiMjwN34YuoA7Y+H1ofLyTxAVr8ewS0vtDYqlY8X5CB+RD/DqfmN/G4N7XWRbC7QuP/XJoEZETlHqwRGR4uoBrDbJnGJPx6Ls+IB5bQRRAzHtreAosxKUgWbeSqdOy3H65I3u3ApaInPQUsERk+BYC//0KNLc4Cr80XPQC4SDgeRAdCVAGsaQj7ALLrWTzA3magMs+BreO4dxFRMpAAUtEhu+2OXCJgzN3R0xaAJlDW/Cq9+NSPkHBioe6BxHO98HLkelay/RPwRtnOX43G+53qP9KRE5mClgiMgJLwBl87wZjy5PgT+8jNXEVqSrwLQAgDEMS1R7Jiesgv58DSbjiq8ann4ardbioiJzcFLBEZPh2fALuexEueRn+arFH29QMkVtFrh9Cz+EAc0ZhCPx4K40fGGDTOY4Jn4U3roJJT471CkRESkpvEYrI8M35QPHzhr3wlQIsaYNc92pwxb6rKBuRSjoGB6AvWM225wp8v9tn3eUhn1sN1Y3wj2O6AhGRklLAEpERONI/9YJB5VUQ+yak2U1V7RaC/DzSAzkStUlSFV14h9uoWgAPJY2Xvg0Hz4UFHx3b6YuIlJi2CEVkZL5qsKQXFj5t/PR8SJ7fg1+5pni4KAX8GFRNWkfY2MVZF0JdH8z/CLS9G67bNtazFxEpKVWwRGRkJhfAbYahAK446LN3/xBz39dKmL4ZPwmZPqibup5nGw9y3RYPb7FR76AJmKo3CEXk5KaAJSIj87U4sBgcxtnbYb4P6UOb8KsHsaACZ5DuXMf1B6Bxg8eV9wUsXg9cCI+N9eRFREpLAUtERu68Z8HPwrvrjYa50BZ2kCisx/Mvwflb8ZM7qGqHloXGc++DmiF4/vqxnrWISMkpYInIyM1aCgcBi4x7PMfOyZ18ceUG4u4SknUvUzurg1XA4s2G70H3TOj4OvDcGE9cRKS0FLBEZIQc/NtlwCvwwjVGc2OML5wREK9ZgxeDfPplOp/uY87UGAfOC8kAKaDxA2M7bRGRMlDAEpGRa/o17LTimVb/8zSkmyAW7YGoG9hJxTTo6Hc8747cT1g5lrMVESkbBSwRGbk3gDOBDHD2lca01dDXcBDnP0Xc20NFDiqnGBcbTAN+52Dv2E5ZRKQcdA6WiByfVxbCrhpY/L2IHy+CqHsv2X0Pkdmzk2e2wAV+yONvwLe6FK5E5JTxv8K2+wiQczoPAAAAAElFTkSuQmCC;connectable=1;allowArrows=0;editable=1;movable=0;resizable=0;rotatable=0;deletable=0;cloneable=0;backgroundOutline=1;expand=0;" vertex="1" parent="1">
          <mxGeometry x="-783" y="250" width="783.11" height="680" as="geometry" />
        </mxCell>
        <mxCell id="ccXvsCosrCvfX4L5Q6JC-2" value="&lt;font style=&quot;font-size: 24px;&quot;&gt;THE DRAM ICEBERG&lt;/font&gt;" style="text;html=1;strokeColor=none;fillColor=none;align=center;verticalAlign=middle;whiteSpace=wrap;rounded=0;" vertex="1" parent="1">
          <mxGeometry x="-575" y="10" width="300" height="40" as="geometry" />
        </mxCell>
        <mxCell id="ccXvsCosrCvfX4L5Q6JC-3" value="" style="swimlane;startSize=0;fontSize=24;fillColor=#0050ef;fontColor=#ffffff;strokeColor=#001DBC;" vertex="1" parent="1">
          <mxGeometry x="-800" y="70" width="760" height="200" as="geometry" />
        </mxCell>
        <mxCell id="ccXvsCosrCvfX4L5Q6JC-11" value="DRAM on KBase" style="rounded=1;whiteSpace=wrap;html=1;fontSize=24;shadow=1;" vertex="1" parent="ccXvsCosrCvfX4L5Q6JC-3">
          <mxGeometry x="20" y="30" width="240" height="50" as="geometry" />
        </mxCell>
        <mxCell id="ccXvsCosrCvfX4L5Q6JC-12" value="DRAM2 Study comand" style="rounded=1;whiteSpace=wrap;html=1;fontSize=24;shadow=1;" vertex="1" parent="ccXvsCosrCvfX4L5Q6JC-3">
          <mxGeometry x="530" y="30" width="210" height="70" as="geometry" />
        </mxCell>
        <mxCell id="ccXvsCosrCvfX4L5Q6JC-7" value="" style="swimlane;startSize=0;fontSize=24;fillColor=#0050ef;fontColor=#ffffff;strokeColor=#001DBC;" vertex="1" parent="1">
          <mxGeometry x="-800" y="280" width="760" height="200" as="geometry" />
        </mxCell>
        <mxCell id="ccXvsCosrCvfX4L5Q6JC-14" value="DRAM2 DBBuilder" style="rounded=1;whiteSpace=wrap;html=1;fontSize=24;shadow=1;" vertex="1" parent="ccXvsCosrCvfX4L5Q6JC-7">
          <mxGeometry x="499" y="14" width="210" height="70" as="geometry" />
        </mxCell>
        <mxCell id="ccXvsCosrCvfX4L5Q6JC-8" value="" style="swimlane;startSize=0;fontSize=24;fillColor=#0050ef;fontColor=#ffffff;strokeColor=#001DBC;" vertex="1" parent="1">
          <mxGeometry x="-800" y="490" width="760" height="200" as="geometry" />
        </mxCell>
        <mxCell id="ccXvsCosrCvfX4L5Q6JC-9" value="" style="swimlane;startSize=0;fontSize=24;fillColor=#0050ef;fontColor=#ffffff;strokeColor=#001DBC;" vertex="1" parent="1">
          <mxGeometry x="-800" y="700" width="760" height="200" as="geometry" />
        </mxCell>
        <mxCell id="ccXvsCosrCvfX4L5Q6JC-10" value="" style="swimlane;startSize=0;fontSize=24;fillColor=#0050ef;fontColor=#ffffff;strokeColor=#001DBC;" vertex="1" parent="1">
          <mxGeometry x="-800" y="910" width="760" height="180" as="geometry" />
        </mxCell>
        <mxCell id="ccXvsCosrCvfX4L5Q6JC-13" value="step-by-step commands" style="rounded=1;whiteSpace=wrap;html=1;fontSize=24;shadow=1;" vertex="1" parent="1">
          <mxGeometry x="-753" y="292" width="210" height="70" as="geometry" />
        </mxCell>
        <mxCell id="ccXvsCosrCvfX4L5Q6JC-15" value=" Adjectives" style="rounded=1;whiteSpace=wrap;html=1;fontSize=24;shadow=1;" vertex="1" parent="1">
          <mxGeometry x="-280" y="380" width="180" height="60" as="geometry" />
        </mxCell>
        <mxCell id="ccXvsCosrCvfX4L5Q6JC-16" value="Phylo-trees" style="rounded=1;whiteSpace=wrap;html=1;fontSize=24;shadow=1;" vertex="1" parent="1">
          <mxGeometry x="-783" y="410" width="203" height="60" as="geometry" />
        </mxCell>
        <mxCell id="ccXvsCosrCvfX4L5Q6JC-17" value="Snakemake modul" style="rounded=1;whiteSpace=wrap;html=1;fontSize=24;shadow=1;" vertex="1" parent="1">
          <mxGeometry x="-250" y="542" width="210" height="70" as="geometry" />
        </mxCell>
        <mxCell id="ccXvsCosrCvfX4L5Q6JC-18" value="Viral tools" style="rounded=1;whiteSpace=wrap;html=1;fontSize=24;shadow=1;" vertex="1" parent="1">
          <mxGeometry x="-750" y="502" width="210" height="70" as="geometry" />
        </mxCell>
        <mxCell id="ccXvsCosrCvfX4L5Q6JC-20" value="DRAM2 Distributed" style="rounded=1;whiteSpace=wrap;html=1;fontSize=24;shadow=1;" vertex="1" parent="1">
          <mxGeometry x="-720" y="612" width="210" height="70" as="geometry" />
        </mxCell>
        <mxCell id="ccXvsCosrCvfX4L5Q6JC-21" value="Run time databases" style="rounded=1;whiteSpace=wrap;html=1;fontSize=24;shadow=1;" vertex="1" parent="1">
          <mxGeometry x="-700" y="730" width="210" height="70" as="geometry" />
        </mxCell>
        <mxCell id="ccXvsCosrCvfX4L5Q6JC-19" value="DRAM2 Snakemake" style="rounded=1;whiteSpace=wrap;html=1;fontSize=24;shadow=1;" vertex="1" parent="1">
          <mxGeometry x="-280" y="820" width="210" height="70" as="geometry" />
        </mxCell>
        <mxCell id="ccXvsCosrCvfX4L5Q6JC-22" value="Text" style="text;html=1;align=center;verticalAlign=middle;resizable=0;points=[];autosize=1;strokeColor=none;fillColor=none;fontSize=24;" vertex="1" parent="1">
          <mxGeometry x="-1030" y="910" width="80" height="40" as="geometry" />
        </mxCell>
      </root>
    </mxGraphModel>
  </diagram>
</mxfile>
